<svg width="83" height="50" viewBox="0 0 83 50" fill="none" xmlns="http://www.w3.org/2000/svg">
<mask id="path-1-outside-1" maskUnits="userSpaceOnUse" x="0" y="3" width="37" height="29" fill="black">
<rect fill="white" y="3" width="37" height="29"/>
<path d="M19.0944 28.678C18.9973 28.7064 18.9185 28.6425 18.8819 28.5814C18.8383 28.5188 18.8144 28.4506 18.7961 28.3824C18.7722 28.3142 18.7694 28.2446 18.7539 28.1749C18.7454 28.1053 18.7412 28.0357 18.7356 27.966C18.7243 27.6889 18.7328 27.4118 18.7581 27.1376C18.8059 26.5876 18.8833 26.0419 18.9818 25.5005L19.5558 22.2534L20.7038 15.762L20.8474 14.9505C20.8938 14.6791 20.9486 14.4105 20.9824 14.1419C21.0542 13.6019 21.0921 13.0577 21.1034 12.512C21.1245 11.4235 21.0415 10.3278 20.7897 9.27339C20.5378 8.22322 20.1073 7.20716 19.4278 6.38437C18.7525 5.56015 17.8253 4.96899 16.8067 4.67625C15.7896 4.37357 14.7048 4.32809 13.6384 4.41336C12.5692 4.50572 11.5112 4.73025 10.4729 5.02441C10.2126 5.09689 9.95515 5.17931 9.69768 5.25889L8.93374 5.52747L8.55106 5.66105C8.42304 5.7051 8.30204 5.76336 8.17683 5.8131L7.43117 6.12573C6.4576 6.58332 5.51357 7.10769 4.6638 7.75996C3.81544 8.40938 3.06838 9.19665 2.52813 10.1104C1.98366 11.0241 1.65304 12.0544 1.54893 13.1117C1.4617 14.1718 1.56863 15.249 1.8486 16.2849C1.98226 16.8036 2.1539 17.3152 2.35931 17.8111C2.5619 18.3085 2.79404 18.7959 3.05291 19.2649C3.18234 19.4993 3.32022 19.731 3.46372 19.9527C3.60582 20.1701 3.76902 20.3918 3.9294 20.6092C4.25299 21.044 4.58783 21.4718 4.93111 21.8938C5.61768 22.7351 6.33942 23.548 7.09492 24.3253C8.60593 25.8757 10.2534 27.3038 12.0866 28.4137C12.9983 28.9721 13.9634 29.4368 14.9679 29.7623C15.9668 30.0905 17.0248 30.2596 18.0645 30.2639C19.1056 30.2596 20.1383 30.045 21.0753 29.5988C22.0137 29.1555 22.8423 28.4876 23.5528 27.7046C24.2703 26.9244 24.8739 26.0305 25.4395 25.1026C25.7194 24.6379 26.0191 24.1604 26.2878 23.7043C26.5551 23.2339 26.814 22.7564 27.063 22.2704C28.0619 20.3292 28.9764 18.3355 29.8712 16.3375C30.0921 15.8373 30.3101 15.3342 30.5141 14.8312C30.6197 14.5782 30.7027 14.3324 30.7983 14.0666C30.8912 13.8066 30.9869 13.5479 31.0853 13.2893C31.4821 12.259 31.9126 11.2416 32.4346 10.2639C32.7005 9.77786 32.9861 9.29897 33.3434 8.8627C33.5235 8.6467 33.7205 8.4378 33.9709 8.28006C34.0947 8.20191 34.2382 8.13796 34.3958 8.11806C34.5533 8.09675 34.7208 8.13654 34.853 8.21612C34.9881 8.29427 35.0908 8.40654 35.178 8.52164C35.2666 8.63675 35.3328 8.76323 35.3975 8.88828C35.5185 9.14265 35.6099 9.40697 35.6831 9.67413C35.8294 10.2099 35.9237 10.7541 35.9996 11.2984C36.0025 11.3183 35.9884 11.3353 35.9701 11.3382C35.9518 11.341 35.9335 11.3282 35.9307 11.3098C35.8308 10.7712 35.7126 10.234 35.5466 9.71676C35.4636 9.45812 35.3665 9.20375 35.2427 8.96786C35.1175 8.73765 34.9628 8.50886 34.7531 8.39375C34.6504 8.33833 34.5365 8.31559 34.4239 8.33549C34.3114 8.35396 34.1988 8.40512 34.0961 8.47617C33.8879 8.61828 33.7092 8.81723 33.5474 9.02754C33.2252 9.45102 32.9621 9.92849 32.7188 10.4131C32.2334 11.3851 31.831 12.4026 31.4652 13.4314C31.3738 13.6886 31.2851 13.9473 31.2007 14.2059C31.1177 14.4588 31.0305 14.7359 30.9306 14.9932C30.7364 15.5133 30.5296 16.022 30.32 16.5322C29.9007 17.5496 29.466 18.56 29.0102 19.5619C28.5572 20.5637 28.0915 21.5613 27.6005 22.5489C27.3571 23.0435 27.0996 23.5337 26.8323 24.0197C26.5523 24.5129 26.2752 24.9676 25.9952 25.4451C25.4338 26.3943 24.8204 27.3393 24.0677 28.182C23.315 29.0205 22.4132 29.7566 21.3792 30.2511C20.3465 30.7499 19.1999 30.9915 18.0659 31C17.4989 30.9986 16.9334 30.9531 16.3805 30.8551C16.2412 30.8366 16.1047 30.8025 15.9668 30.7755C15.8304 30.7442 15.6911 30.7215 15.556 30.6845C15.2859 30.6078 15.0101 30.5453 14.7456 30.4486C13.6778 30.0948 12.6691 29.5988 11.725 29.0134C9.83275 27.8396 8.16557 26.3602 6.6419 24.7658C5.88077 23.9672 5.15622 23.133 4.46684 22.2718C4.12215 21.8413 3.7859 21.4036 3.46091 20.9559C3.29911 20.73 3.13873 20.5097 2.98256 20.2667C2.83062 20.028 2.68993 19.7864 2.55768 19.5391C2.29037 19.0474 2.05401 18.5387 1.84719 18.0186C1.63757 17.4985 1.46311 16.9642 1.32664 16.4199C1.04245 15.3328 0.935525 14.1903 1.03823 13.0591C1.15781 11.9308 1.5222 10.8238 2.11028 9.85602C2.69555 8.88544 3.49326 8.06406 4.38242 7.39332C5.27299 6.72116 6.25078 6.18968 7.2525 5.72926L8.01644 5.4152C8.14447 5.36405 8.26968 5.3072 8.40052 5.26315L8.79024 5.12957L9.56966 4.86241C9.83275 4.78425 10.0944 4.70183 10.3603 4.63078C11.4197 4.33946 12.5016 4.1192 13.6032 4.03251C14.702 3.95293 15.8304 4.00693 16.9024 4.3352C17.9731 4.65351 18.9621 5.29868 19.667 6.17973C20.376 7.05937 20.8108 8.12375 21.0584 9.2066C21.306 10.2937 21.3792 11.4107 21.3454 12.5177C21.3271 13.0719 21.2821 13.6233 21.2047 14.1732C21.1667 14.4503 21.1076 14.7189 21.0598 14.9889L20.9078 15.7989L19.6909 22.2789L19.0831 25.519C18.9804 26.0575 18.896 26.6004 18.8439 27.1447C18.8158 27.4175 18.8059 27.6903 18.813 27.9618C18.8186 28.0286 18.8214 28.0968 18.8285 28.1636C18.8411 28.2289 18.8439 28.2986 18.8664 28.3597C18.8819 28.4236 18.9058 28.4861 18.9396 28.5373C18.9691 28.5927 19.0282 28.6211 19.0676 28.6112L19.0747 28.6098C19.0929 28.6041 19.1126 28.6155 19.1169 28.6354C19.1239 28.6538 19.1126 28.6723 19.0944 28.678Z"/>
</mask>
<path d="M19.0944 28.678C18.9973 28.7064 18.9185 28.6425 18.8819 28.5814C18.8383 28.5188 18.8144 28.4506 18.7961 28.3824C18.7722 28.3142 18.7694 28.2446 18.7539 28.1749C18.7454 28.1053 18.7412 28.0357 18.7356 27.966C18.7243 27.6889 18.7328 27.4118 18.7581 27.1376C18.8059 26.5876 18.8833 26.0419 18.9818 25.5005L19.5558 22.2534L20.7038 15.762L20.8474 14.9505C20.8938 14.6791 20.9486 14.4105 20.9824 14.1419C21.0542 13.6019 21.0921 13.0577 21.1034 12.512C21.1245 11.4235 21.0415 10.3278 20.7897 9.27339C20.5378 8.22322 20.1073 7.20716 19.4278 6.38437C18.7525 5.56015 17.8253 4.96899 16.8067 4.67625C15.7896 4.37357 14.7048 4.32809 13.6384 4.41336C12.5692 4.50572 11.5112 4.73025 10.4729 5.02441C10.2126 5.09689 9.95515 5.17931 9.69768 5.25889L8.93374 5.52747L8.55106 5.66105C8.42304 5.7051 8.30204 5.76336 8.17683 5.8131L7.43117 6.12573C6.4576 6.58332 5.51357 7.10769 4.6638 7.75996C3.81544 8.40938 3.06838 9.19665 2.52813 10.1104C1.98366 11.0241 1.65304 12.0544 1.54893 13.1117C1.4617 14.1718 1.56863 15.249 1.8486 16.2849C1.98226 16.8036 2.1539 17.3152 2.35931 17.8111C2.5619 18.3085 2.79404 18.7959 3.05291 19.2649C3.18234 19.4993 3.32022 19.731 3.46372 19.9527C3.60582 20.1701 3.76902 20.3918 3.9294 20.6092C4.25299 21.044 4.58783 21.4718 4.93111 21.8938C5.61768 22.7351 6.33942 23.548 7.09492 24.3253C8.60593 25.8757 10.2534 27.3038 12.0866 28.4137C12.9983 28.9721 13.9634 29.4368 14.9679 29.7623C15.9668 30.0905 17.0248 30.2596 18.0645 30.2639C19.1056 30.2596 20.1383 30.045 21.0753 29.5988C22.0137 29.1555 22.8423 28.4876 23.5528 27.7046C24.2703 26.9244 24.8739 26.0305 25.4395 25.1026C25.7194 24.6379 26.0191 24.1604 26.2878 23.7043C26.5551 23.2339 26.814 22.7564 27.063 22.2704C28.0619 20.3292 28.9764 18.3355 29.8712 16.3375C30.0921 15.8373 30.3101 15.3342 30.5141 14.8312C30.6197 14.5782 30.7027 14.3324 30.7983 14.0666C30.8912 13.8066 30.9869 13.5479 31.0853 13.2893C31.4821 12.259 31.9126 11.2416 32.4346 10.2639C32.7005 9.77786 32.9861 9.29897 33.3434 8.8627C33.5235 8.6467 33.7205 8.4378 33.9709 8.28006C34.0947 8.20191 34.2382 8.13796 34.3958 8.11806C34.5533 8.09675 34.7208 8.13654 34.853 8.21612C34.9881 8.29427 35.0908 8.40654 35.178 8.52164C35.2666 8.63675 35.3328 8.76323 35.3975 8.88828C35.5185 9.14265 35.6099 9.40697 35.6831 9.67413C35.8294 10.2099 35.9237 10.7541 35.9996 11.2984C36.0025 11.3183 35.9884 11.3353 35.9701 11.3382C35.9518 11.341 35.9335 11.3282 35.9307 11.3098C35.8308 10.7712 35.7126 10.234 35.5466 9.71676C35.4636 9.45812 35.3665 9.20375 35.2427 8.96786C35.1175 8.73765 34.9628 8.50886 34.7531 8.39375C34.6504 8.33833 34.5365 8.31559 34.4239 8.33549C34.3114 8.35396 34.1988 8.40512 34.0961 8.47617C33.8879 8.61828 33.7092 8.81723 33.5474 9.02754C33.2252 9.45102 32.9621 9.92849 32.7188 10.4131C32.2334 11.3851 31.831 12.4026 31.4652 13.4314C31.3738 13.6886 31.2851 13.9473 31.2007 14.2059C31.1177 14.4588 31.0305 14.7359 30.9306 14.9932C30.7364 15.5133 30.5296 16.022 30.32 16.5322C29.9007 17.5496 29.466 18.56 29.0102 19.5619C28.5572 20.5637 28.0915 21.5613 27.6005 22.5489C27.3571 23.0435 27.0996 23.5337 26.8323 24.0197C26.5523 24.5129 26.2752 24.9676 25.9952 25.4451C25.4338 26.3943 24.8204 27.3393 24.0677 28.182C23.315 29.0205 22.4132 29.7566 21.3792 30.2511C20.3465 30.7499 19.1999 30.9915 18.0659 31C17.4989 30.9986 16.9334 30.9531 16.3805 30.8551C16.2412 30.8366 16.1047 30.8025 15.9668 30.7755C15.8304 30.7442 15.6911 30.7215 15.556 30.6845C15.2859 30.6078 15.0101 30.5453 14.7456 30.4486C13.6778 30.0948 12.6691 29.5988 11.725 29.0134C9.83275 27.8396 8.16557 26.3602 6.6419 24.7658C5.88077 23.9672 5.15622 23.133 4.46684 22.2718C4.12215 21.8413 3.7859 21.4036 3.46091 20.9559C3.29911 20.73 3.13873 20.5097 2.98256 20.2667C2.83062 20.028 2.68993 19.7864 2.55768 19.5391C2.29037 19.0474 2.05401 18.5387 1.84719 18.0186C1.63757 17.4985 1.46311 16.9642 1.32664 16.4199C1.04245 15.3328 0.935525 14.1903 1.03823 13.0591C1.15781 11.9308 1.5222 10.8238 2.11028 9.85602C2.69555 8.88544 3.49326 8.06406 4.38242 7.39332C5.27299 6.72116 6.25078 6.18968 7.2525 5.72926L8.01644 5.4152C8.14447 5.36405 8.26968 5.3072 8.40052 5.26315L8.79024 5.12957L9.56966 4.86241C9.83275 4.78425 10.0944 4.70183 10.3603 4.63078C11.4197 4.33946 12.5016 4.1192 13.6032 4.03251C14.702 3.95293 15.8304 4.00693 16.9024 4.3352C17.9731 4.65351 18.9621 5.29868 19.667 6.17973C20.376 7.05937 20.8108 8.12375 21.0584 9.2066C21.306 10.2937 21.3792 11.4107 21.3454 12.5177C21.3271 13.0719 21.2821 13.6233 21.2047 14.1732C21.1667 14.4503 21.1076 14.7189 21.0598 14.9889L20.9078 15.7989L19.6909 22.2789L19.0831 25.519C18.9804 26.0575 18.896 26.6004 18.8439 27.1447C18.8158 27.4175 18.8059 27.6903 18.813 27.9618C18.8186 28.0286 18.8214 28.0968 18.8285 28.1636C18.8411 28.2289 18.8439 28.2986 18.8664 28.3597C18.8819 28.4236 18.9058 28.4861 18.9396 28.5373C18.9691 28.5927 19.0282 28.6211 19.0676 28.6112L19.0747 28.6098C19.0929 28.6041 19.1126 28.6155 19.1169 28.6354C19.1239 28.6538 19.1126 28.6723 19.0944 28.678Z" fill="#FD464B"/>
<path d="M19.0944 28.678C18.9973 28.7064 18.9185 28.6425 18.8819 28.5814C18.8383 28.5188 18.8144 28.4506 18.7961 28.3824C18.7722 28.3142 18.7694 28.2446 18.7539 28.1749C18.7454 28.1053 18.7412 28.0357 18.7356 27.966C18.7243 27.6889 18.7328 27.4118 18.7581 27.1376C18.8059 26.5876 18.8833 26.0419 18.9818 25.5005L19.5558 22.2534L20.7038 15.762L20.8474 14.9505C20.8938 14.6791 20.9486 14.4105 20.9824 14.1419C21.0542 13.6019 21.0921 13.0577 21.1034 12.512C21.1245 11.4235 21.0415 10.3278 20.7897 9.27339C20.5378 8.22322 20.1073 7.20716 19.4278 6.38437C18.7525 5.56015 17.8253 4.96899 16.8067 4.67625C15.7896 4.37357 14.7048 4.32809 13.6384 4.41336C12.5692 4.50572 11.5112 4.73025 10.4729 5.02441C10.2126 5.09689 9.95515 5.17931 9.69768 5.25889L8.93374 5.52747L8.55106 5.66105C8.42304 5.7051 8.30204 5.76336 8.17683 5.8131L7.43117 6.12573C6.4576 6.58332 5.51357 7.10769 4.6638 7.75996C3.81544 8.40938 3.06838 9.19665 2.52813 10.1104C1.98366 11.0241 1.65304 12.0544 1.54893 13.1117C1.4617 14.1718 1.56863 15.249 1.8486 16.2849C1.98226 16.8036 2.1539 17.3152 2.35931 17.8111C2.5619 18.3085 2.79404 18.7959 3.05291 19.2649C3.18234 19.4993 3.32022 19.731 3.46372 19.9527C3.60582 20.1701 3.76902 20.3918 3.9294 20.6092C4.25299 21.044 4.58783 21.4718 4.93111 21.8938C5.61768 22.7351 6.33942 23.548 7.09492 24.3253C8.60593 25.8757 10.2534 27.3038 12.0866 28.4137C12.9983 28.9721 13.9634 29.4368 14.9679 29.7623C15.9668 30.0905 17.0248 30.2596 18.0645 30.2639C19.1056 30.2596 20.1383 30.045 21.0753 29.5988C22.0137 29.1555 22.8423 28.4876 23.5528 27.7046C24.2703 26.9244 24.8739 26.0305 25.4395 25.1026C25.7194 24.6379 26.0191 24.1604 26.2878 23.7043C26.5551 23.2339 26.814 22.7564 27.063 22.2704C28.0619 20.3292 28.9764 18.3355 29.8712 16.3375C30.0921 15.8373 30.3101 15.3342 30.5141 14.8312C30.6197 14.5782 30.7027 14.3324 30.7983 14.0666C30.8912 13.8066 30.9869 13.5479 31.0853 13.2893C31.4821 12.259 31.9126 11.2416 32.4346 10.2639C32.7005 9.77786 32.9861 9.29897 33.3434 8.8627C33.5235 8.6467 33.7205 8.4378 33.9709 8.28006C34.0947 8.20191 34.2382 8.13796 34.3958 8.11806C34.5533 8.09675 34.7208 8.13654 34.853 8.21612C34.9881 8.29427 35.0908 8.40654 35.178 8.52164C35.2666 8.63675 35.3328 8.76323 35.3975 8.88828C35.5185 9.14265 35.6099 9.40697 35.6831 9.67413C35.8294 10.2099 35.9237 10.7541 35.9996 11.2984C36.0025 11.3183 35.9884 11.3353 35.9701 11.3382C35.9518 11.341 35.9335 11.3282 35.9307 11.3098C35.8308 10.7712 35.7126 10.234 35.5466 9.71676C35.4636 9.45812 35.3665 9.20375 35.2427 8.96786C35.1175 8.73765 34.9628 8.50886 34.7531 8.39375C34.6504 8.33833 34.5365 8.31559 34.4239 8.33549C34.3114 8.35396 34.1988 8.40512 34.0961 8.47617C33.8879 8.61828 33.7092 8.81723 33.5474 9.02754C33.2252 9.45102 32.9621 9.92849 32.7188 10.4131C32.2334 11.3851 31.831 12.4026 31.4652 13.4314C31.3738 13.6886 31.2851 13.9473 31.2007 14.2059C31.1177 14.4588 31.0305 14.7359 30.9306 14.9932C30.7364 15.5133 30.5296 16.022 30.32 16.5322C29.9007 17.5496 29.466 18.56 29.0102 19.5619C28.5572 20.5637 28.0915 21.5613 27.6005 22.5489C27.3571 23.0435 27.0996 23.5337 26.8323 24.0197C26.5523 24.5129 26.2752 24.9676 25.9952 25.4451C25.4338 26.3943 24.8204 27.3393 24.0677 28.182C23.315 29.0205 22.4132 29.7566 21.3792 30.2511C20.3465 30.7499 19.1999 30.9915 18.0659 31C17.4989 30.9986 16.9334 30.9531 16.3805 30.8551C16.2412 30.8366 16.1047 30.8025 15.9668 30.7755C15.8304 30.7442 15.6911 30.7215 15.556 30.6845C15.2859 30.6078 15.0101 30.5453 14.7456 30.4486C13.6778 30.0948 12.6691 29.5988 11.725 29.0134C9.83275 27.8396 8.16557 26.3602 6.6419 24.7658C5.88077 23.9672 5.15622 23.133 4.46684 22.2718C4.12215 21.8413 3.7859 21.4036 3.46091 20.9559C3.29911 20.73 3.13873 20.5097 2.98256 20.2667C2.83062 20.028 2.68993 19.7864 2.55768 19.5391C2.29037 19.0474 2.05401 18.5387 1.84719 18.0186C1.63757 17.4985 1.46311 16.9642 1.32664 16.4199C1.04245 15.3328 0.935525 14.1903 1.03823 13.0591C1.15781 11.9308 1.5222 10.8238 2.11028 9.85602C2.69555 8.88544 3.49326 8.06406 4.38242 7.39332C5.27299 6.72116 6.25078 6.18968 7.2525 5.72926L8.01644 5.4152C8.14447 5.36405 8.26968 5.3072 8.40052 5.26315L8.79024 5.12957L9.56966 4.86241C9.83275 4.78425 10.0944 4.70183 10.3603 4.63078C11.4197 4.33946 12.5016 4.1192 13.6032 4.03251C14.702 3.95293 15.8304 4.00693 16.9024 4.3352C17.9731 4.65351 18.9621 5.29868 19.667 6.17973C20.376 7.05937 20.8108 8.12375 21.0584 9.2066C21.306 10.2937 21.3792 11.4107 21.3454 12.5177C21.3271 13.0719 21.2821 13.6233 21.2047 14.1732C21.1667 14.4503 21.1076 14.7189 21.0598 14.9889L20.9078 15.7989L19.6909 22.2789L19.0831 25.519C18.9804 26.0575 18.896 26.6004 18.8439 27.1447C18.8158 27.4175 18.8059 27.6903 18.813 27.9618C18.8186 28.0286 18.8214 28.0968 18.8285 28.1636C18.8411 28.2289 18.8439 28.2986 18.8664 28.3597C18.8819 28.4236 18.9058 28.4861 18.9396 28.5373C18.9691 28.5927 19.0282 28.6211 19.0676 28.6112L19.0747 28.6098C19.0929 28.6041 19.1126 28.6155 19.1169 28.6354C19.1239 28.6538 19.1126 28.6723 19.0944 28.678Z" stroke="#FD464B" stroke-width="0.6" mask="url(#path-1-outside-1)"/>
<path d="M21.7492 24.15L21.7492 24.15C21.6216 24.1484 21.487 24.1437 21.3476 24.124L21.3444 24.1235L21.3444 24.1235L21.343 24.1232C21.2781 24.1126 21.2002 24.0998 21.1136 24.0661L21.1084 24.0641L21.1084 24.064C21.1069 24.0633 21.1052 24.0626 21.1036 24.0619C21.0654 24.0455 21.0044 24.0193 20.9409 23.9504C20.8997 23.9067 20.8618 23.8362 20.8524 23.7568L20.8523 23.7562C20.8428 23.6734 20.8645 23.6047 20.8822 23.5627L20.8867 23.5522L20.887 23.5524C20.9502 23.4294 21.0241 23.3712 21.0749 23.3312C21.0828 23.3249 21.0901 23.3192 21.0968 23.3137L21.1025 23.3089L21.1026 23.3091C21.1655 23.262 21.2277 23.2221 21.2885 23.1863C21.4079 23.116 21.5281 23.054 21.6488 22.9973C21.8862 22.8849 22.1242 22.7855 22.3615 22.6899L22.363 22.6893L22.363 22.6893C23.333 22.3109 24.3427 22.0858 25.3579 21.9665L25.3588 21.9664L25.3588 21.9664C26.362 21.8544 27.4115 21.762 28.4531 21.9935C28.7114 22.05 28.9675 22.122 29.2199 22.2046L29.2249 22.2063L29.2249 22.2063C29.4745 22.2978 29.7291 22.4007 29.9745 22.5401C30.2206 22.6761 30.4589 22.8452 30.671 23.0576L30.6721 23.0587L30.6721 23.0587C30.8798 23.271 31.0747 23.5484 31.1457 23.8745L31.1465 23.8783L31.1465 23.8783C31.1629 23.9646 31.1193 24.0646 31.0191 24.0968L31.0062 24.1009L31.0061 24.1003C30.9412 24.1149 30.8677 24.0944 30.8212 24.0349L30.8179 24.0312L30.8125 24.0233C30.6786 23.8277 30.5057 23.6899 30.3125 23.5814L30.3118 23.581C30.1172 23.4702 29.906 23.3881 29.6851 23.3178C29.2381 23.1859 28.775 23.1001 28.3049 23.0488L28.3029 23.0486L28.3029 23.0485C27.8296 22.9906 27.3502 22.9494 26.8672 22.9111L26.8663 22.911C26.3883 22.8701 25.9072 22.861 25.4242 22.8792C24.9425 22.9019 24.4607 22.952 23.9814 23.0279L23.9809 23.0279C23.5014 23.1023 23.0275 23.2023 22.5614 23.3411L22.5602 23.3415L22.5602 23.3415C22.323 23.41 22.0891 23.4826 21.8615 23.5653C21.7713 23.5987 21.6846 23.6321 21.6018 23.6686C21.658 23.6773 21.7157 23.6846 21.7747 23.6913C22.0132 23.7183 22.2567 23.7319 22.4999 23.7364C22.5002 23.7365 22.5005 23.7365 22.5009 23.7365L22.4981 23.8864C22.5172 23.8864 22.5322 23.9033 22.5322 23.9248L21.7492 24.15ZM21.7492 24.15H21.7511C22.0083 24.15 22.2618 24.1343 22.5151 24.1094L21.7492 24.15ZM21.2214 23.7157C21.2271 23.7196 21.2336 23.7235 21.2403 23.7268L21.2214 23.7157ZM21.2214 23.7157C21.223 23.7142 21.2247 23.7126 21.2265 23.7109L21.2494 23.7084L21.2498 23.7083L21.3429 23.698L21.2214 23.7157ZM21.1679 23.9263C21.1666 23.9258 21.1652 23.9252 21.1639 23.9246C21.1295 23.9098 21.0925 23.8938 21.0505 23.8481L21.1679 23.9263ZM21.1679 23.9263C21.239 23.954 21.3031 23.9647 21.3687 23.9754L21.1679 23.9263ZM22.4868 23.8108L22.4861 23.8108L22.4868 23.8108ZM21.2045 23.7025C21.203 23.6994 21.2014 23.6972 21.2003 23.6961C21.2002 23.696 21.2001 23.6959 21.2 23.6959C21.1993 23.6953 21.199 23.6953 21.1994 23.6961C21.1994 23.6971 21.2012 23.6994 21.2045 23.7025Z" fill="#FD464B" stroke="#FD464B" stroke-width="0.3"/>
<path d="M29.7232 24.5337L29.7232 24.5337C30.0382 23.4129 30.368 22.296 30.7193 21.183C30.894 20.6278 31.0716 20.0707 31.2546 19.5163L31.2549 19.5154C31.443 18.9576 31.6555 18.4089 31.9021 17.8721L31.9026 17.8709L31.9026 17.8709C32.1517 17.3401 32.4184 16.8115 32.7293 16.3054L32.7295 16.3051C33.0379 15.8058 33.3874 15.2977 33.8448 14.8958L33.8464 14.8943L33.8465 14.8943C33.9217 14.8302 34.0418 14.8333 34.1099 14.92L33.9918 15.0126M29.7232 24.5337L31.3664 21.4186C31.5595 20.9063 31.7689 20.4018 31.9778 19.8983C32.2101 19.3384 32.4419 18.7796 32.6504 18.2128L32.7908 18.2658C32.7908 18.2656 32.7909 18.2654 32.791 18.2652C32.8923 17.9968 32.9932 17.7297 33.0979 17.4656L33.0979 17.4657L33.0992 17.4621C33.1674 17.2768 33.2408 17.0947 33.3151 16.9103C33.3474 16.8302 33.3799 16.7496 33.4122 16.6681C33.6272 16.1441 33.8416 15.6336 34.1159 15.1444L34.1185 15.1418L34.1282 15.1235C34.1624 15.0593 34.1571 14.9762 34.1067 14.9162L33.9918 15.0126M29.7232 24.5337L29.7228 24.5351C29.4188 25.659 29.1195 26.7848 28.8549 27.921M29.7232 24.5337L29.2118 28.0219C29.1801 28.1226 29.0729 28.1709 28.9804 28.1413L28.9683 28.1374L28.9685 28.1369C28.892 28.1049 28.8314 28.0203 28.8549 27.921M33.9918 15.0126C33.9807 14.9984 33.9614 14.9962 33.9469 15.0061L33.9958 15.053C34.0025 15.0404 34.0012 15.0237 33.9918 15.0126ZM28.8549 27.921C28.8549 27.9208 28.855 27.9206 28.855 27.9204L28.9864 27.9518L29.0009 27.9553L28.988 27.9523L28.8548 27.9213C28.8548 27.9212 28.8549 27.9211 28.8549 27.921ZM29.1468 27.9903L29.147 27.9893L29.1468 27.9903Z" fill="#FD464B" stroke="#FD464B" stroke-width="0.3"/>
<mask id="path-4-outside-2" maskUnits="userSpaceOnUse" x="35" y="0" width="14" height="29" fill="black">
<rect fill="white" x="35" width="14" height="29"/>
<path d="M47.9976 1.05227C46.8793 3.86624 45.7953 6.69738 44.7672 9.55285C44.2526 10.9799 43.7569 12.4169 43.3045 13.8668C43.2486 14.0486 43.1889 14.229 43.1368 14.4107L42.9805 14.9589C42.8699 15.3225 42.7835 15.6918 42.6933 16.0596C42.6425 16.2428 42.6145 16.4275 42.5827 16.6121C42.5497 16.7967 42.5166 16.98 42.5014 17.1703C42.4633 17.5482 42.4353 17.9289 42.4379 18.3025C42.4391 18.4886 42.448 18.6746 42.4773 18.8435C42.49 18.9294 42.5154 19.0053 42.5395 19.0597C42.5522 19.084 42.5649 19.0983 42.5688 19.0997C42.5688 19.0997 42.5688 19.1026 42.5688 19.0997C42.5662 19.1026 42.5713 19.0983 42.5751 19.0983C42.5992 19.0954 42.659 19.0496 42.7085 18.9952C42.7594 18.9366 42.8102 18.8722 42.8585 18.7992C42.9538 18.656 43.0415 18.4971 43.1228 18.334C43.2867 18.0076 43.4291 17.6627 43.5638 17.3134C43.6299 17.1403 43.6985 16.9599 43.7557 16.7867C43.8141 16.615 43.8599 16.4403 43.8942 16.2643C43.9603 15.9108 43.9679 15.5472 43.898 15.208C43.8332 14.8673 43.6718 14.5625 43.452 14.3334C43.227 14.1116 42.9398 13.9699 42.6348 13.9355C42.3311 13.8955 42.0147 13.9499 41.7173 14.0729C41.4187 14.1946 41.1366 14.3764 40.8773 14.5954C40.6193 14.8172 40.383 15.0763 40.1644 15.3525C39.9496 15.6345 39.7501 15.9337 39.5709 16.25C39.3905 16.5692 39.2126 16.8998 39.0372 17.2276C38.3433 18.5444 37.6902 19.8941 37.1857 21.3025C36.9353 22.0053 36.7256 22.7267 36.6125 23.4524L36.5769 23.7243L36.5566 23.9934L36.5515 24.2625L36.5541 24.5487C36.5591 24.9238 36.5782 25.2916 36.6468 25.6323C36.7129 25.9729 36.8362 26.2806 37.0255 26.4753C37.2111 26.6743 37.4754 26.7558 37.7689 26.7487C38.0625 26.7444 38.3739 26.6614 38.6776 26.544C38.9826 26.4281 39.285 26.2778 39.5798 26.1075C40.1708 25.7711 40.7477 25.3703 41.3005 24.9452C41.575 24.7305 41.8431 24.5072 42.0884 24.2682C42.2104 24.1494 42.3273 24.0249 42.4315 23.8989C42.5319 23.773 42.6259 23.637 42.6704 23.5297C42.6933 23.4781 42.6933 23.4366 42.6933 23.4581C42.6946 23.4667 42.7035 23.4924 42.7136 23.5068C42.7238 23.5211 42.7301 23.5225 42.7263 23.5196C42.7136 23.5125 42.6679 23.4982 42.6107 23.4982C42.5548 23.4967 42.49 23.5039 42.4239 23.5168C42.157 23.574 41.88 23.73 41.6766 23.9376C41.5763 24.0435 41.4898 24.1609 41.4327 24.2897C41.4047 24.3484 41.378 24.4314 41.3513 24.5115C41.3285 24.5931 41.303 24.6747 41.2852 24.7592C41.2065 25.0955 41.1721 25.4519 41.1836 25.7997C41.1925 26.1461 41.2522 26.4896 41.3742 26.773C41.5 27.055 41.6881 27.2439 41.9308 27.304C42.1748 27.3699 42.476 27.2983 42.7619 27.1738C43.0504 27.0464 43.3312 26.8575 43.6019 26.6514C44.142 26.2191 44.6732 25.7453 45.1319 25.21C45.5882 24.6747 45.9821 24.0678 46.1854 23.3922C46.2757 23.053 46.3151 22.7024 46.2744 22.3574C46.2274 22.0139 46.099 21.6875 45.9173 21.3941C45.869 21.324 45.8245 21.2481 45.7724 21.1794L45.606 20.9819C45.4929 20.8531 45.3709 20.74 45.2374 20.6513C44.9718 20.4695 44.6618 20.3822 44.3466 20.4122C44.0314 20.4351 43.7175 20.5597 43.4278 20.7357C43.1355 20.9103 42.8648 21.1379 42.6094 21.3855C42.1024 21.8879 41.6601 22.4762 41.2611 23.1003C41.2509 23.116 41.2306 23.1203 41.2166 23.1088C41.2026 23.0974 41.1988 23.0774 41.2077 23.0602C41.5699 22.4032 41.9855 21.7777 42.4849 21.2324C42.7365 20.9619 43.0059 20.71 43.3096 20.5039C43.6121 20.2977 43.9501 20.1374 44.3186 20.0873C44.6859 20.0329 45.0748 20.126 45.4001 20.3307C45.564 20.4309 45.7127 20.5582 45.8449 20.6985L46.0393 20.9118C46.1016 20.9862 46.1549 21.0707 46.2134 21.1494C46.4345 21.4771 46.6035 21.8636 46.6747 22.283C46.7395 22.7024 46.7039 23.1317 46.6099 23.5339C46.4002 24.3355 45.9783 25.0154 45.503 25.6008C45.0227 26.189 44.4877 26.6929 43.9234 27.1681C43.635 27.4028 43.3261 27.6189 42.9792 27.7807C42.8903 27.8179 42.8064 27.8622 42.7111 27.8894L42.5726 27.9352L42.4264 27.9667C42.2307 28.0039 42.021 28.0183 41.8063 27.9653C41.594 27.9166 41.3844 27.8064 41.2166 27.6475C41.0476 27.4901 40.918 27.294 40.8239 27.0908C40.6397 26.6814 40.566 26.2506 40.5482 25.8298C40.5317 25.4075 40.5711 24.9882 40.6626 24.5788C40.6842 24.4758 40.7134 24.3741 40.7426 24.2725C40.7769 24.1723 40.8062 24.0736 40.857 23.9605C40.9536 23.7443 41.087 23.5583 41.237 23.4023C41.5407 23.0931 41.8965 22.887 42.3006 22.794C42.4023 22.7725 42.509 22.7582 42.6234 22.7596C42.7378 22.7625 42.8636 22.7782 43.0084 22.8512C43.0809 22.8913 43.1584 22.95 43.2232 23.0387C43.288 23.126 43.3325 23.2448 43.3439 23.3493C43.3681 23.5626 43.316 23.7143 43.2702 23.8374C43.1698 24.0793 43.0428 24.2453 42.9157 24.4042C42.7861 24.5602 42.6514 24.699 42.5154 24.8307C42.2409 25.0926 41.955 25.326 41.6665 25.5478C41.0857 25.9858 40.4923 26.3909 39.8594 26.7444C39.543 26.9204 39.2151 27.0779 38.8707 27.2024C38.5263 27.3269 38.1629 27.4243 37.7715 27.4243C37.5771 27.4286 37.3725 27.3942 37.1729 27.3226C36.9722 27.2525 36.7803 27.1223 36.6265 26.9562C36.4715 26.7902 36.3546 26.5912 36.2694 26.3894C36.183 26.1862 36.1309 25.9772 36.0915 25.7697C36.014 25.356 36.0013 24.9481 36 24.5545L36.0013 24.2625C36.0025 24.1652 36.0076 24.0564 36.0114 23.9548L36.0394 23.6485L36.0826 23.3479C36.2173 22.5564 36.4473 21.8092 36.7155 21.0864C37.2505 19.6393 37.9278 18.2824 38.6433 16.9585C38.825 16.6278 39.0042 16.3029 39.1948 15.9737C39.3867 15.6417 39.6027 15.3254 39.8365 15.0262C40.0754 14.7314 40.3347 14.4522 40.6232 14.2104C40.9129 13.9713 41.2331 13.7681 41.5801 13.6321C41.9257 13.4947 42.3044 13.4317 42.6819 13.4861C42.8699 13.5076 43.0555 13.5706 43.2308 13.6536C43.4062 13.7409 43.5676 13.8625 43.7125 14.0071C43.9933 14.3034 44.1903 14.697 44.2653 15.1107C44.3453 15.5243 44.3288 15.9494 44.25 16.3487C44.2093 16.5477 44.156 16.7424 44.0886 16.9313C44.0238 17.1174 43.9552 17.292 43.8853 17.4709C43.743 17.8259 43.5943 18.1794 43.4176 18.5215C43.33 18.6932 43.2346 18.8621 43.1241 19.0253C43.0694 19.1069 43.0072 19.187 42.936 19.2643C42.8598 19.3373 42.7822 19.4218 42.6374 19.459C42.5662 19.4776 42.4671 19.4647 42.3985 19.4132C42.3273 19.3645 42.2866 19.3001 42.2561 19.2414C42.2015 19.1255 42.1748 19.0153 42.1583 18.9108C42.124 18.7004 42.1189 18.5 42.1189 18.3011C42.1214 17.9032 42.1557 17.5138 42.2002 17.1274C42.218 16.9341 42.2561 16.7409 42.293 16.5477C42.3286 16.3545 42.3616 16.1598 42.415 15.9752C42.5116 15.6016 42.6056 15.2266 42.7212 14.863L42.8865 14.3134C42.9424 14.1302 43.0046 13.9499 43.0631 13.7695C43.5371 12.3196 44.0543 10.8897 44.5893 9.46984C45.6581 6.62868 46.7802 3.81614 47.9379 1.02078C47.9455 1.00217 47.9646 0.995018 47.9798 1.00361C47.9976 1.01362 48.004 1.03509 47.9976 1.05227Z"/>
</mask>
<path d="M47.9976 1.05227C46.8793 3.86624 45.7953 6.69738 44.7672 9.55285C44.2526 10.9799 43.7569 12.4169 43.3045 13.8668C43.2486 14.0486 43.1889 14.229 43.1368 14.4107L42.9805 14.9589C42.8699 15.3225 42.7835 15.6918 42.6933 16.0596C42.6425 16.2428 42.6145 16.4275 42.5827 16.6121C42.5497 16.7967 42.5166 16.98 42.5014 17.1703C42.4633 17.5482 42.4353 17.9289 42.4379 18.3025C42.4391 18.4886 42.448 18.6746 42.4773 18.8435C42.49 18.9294 42.5154 19.0053 42.5395 19.0597C42.5522 19.084 42.5649 19.0983 42.5688 19.0997C42.5688 19.0997 42.5688 19.1026 42.5688 19.0997C42.5662 19.1026 42.5713 19.0983 42.5751 19.0983C42.5992 19.0954 42.659 19.0496 42.7085 18.9952C42.7594 18.9366 42.8102 18.8722 42.8585 18.7992C42.9538 18.656 43.0415 18.4971 43.1228 18.334C43.2867 18.0076 43.4291 17.6627 43.5638 17.3134C43.6299 17.1403 43.6985 16.9599 43.7557 16.7867C43.8141 16.615 43.8599 16.4403 43.8942 16.2643C43.9603 15.9108 43.9679 15.5472 43.898 15.208C43.8332 14.8673 43.6718 14.5625 43.452 14.3334C43.227 14.1116 42.9398 13.9699 42.6348 13.9355C42.3311 13.8955 42.0147 13.9499 41.7173 14.0729C41.4187 14.1946 41.1366 14.3764 40.8773 14.5954C40.6193 14.8172 40.383 15.0763 40.1644 15.3525C39.9496 15.6345 39.7501 15.9337 39.5709 16.25C39.3905 16.5692 39.2126 16.8998 39.0372 17.2276C38.3433 18.5444 37.6902 19.8941 37.1857 21.3025C36.9353 22.0053 36.7256 22.7267 36.6125 23.4524L36.5769 23.7243L36.5566 23.9934L36.5515 24.2625L36.5541 24.5487C36.5591 24.9238 36.5782 25.2916 36.6468 25.6323C36.7129 25.9729 36.8362 26.2806 37.0255 26.4753C37.2111 26.6743 37.4754 26.7558 37.7689 26.7487C38.0625 26.7444 38.3739 26.6614 38.6776 26.544C38.9826 26.4281 39.285 26.2778 39.5798 26.1075C40.1708 25.7711 40.7477 25.3703 41.3005 24.9452C41.575 24.7305 41.8431 24.5072 42.0884 24.2682C42.2104 24.1494 42.3273 24.0249 42.4315 23.8989C42.5319 23.773 42.6259 23.637 42.6704 23.5297C42.6933 23.4781 42.6933 23.4366 42.6933 23.4581C42.6946 23.4667 42.7035 23.4924 42.7136 23.5068C42.7238 23.5211 42.7301 23.5225 42.7263 23.5196C42.7136 23.5125 42.6679 23.4982 42.6107 23.4982C42.5548 23.4967 42.49 23.5039 42.4239 23.5168C42.157 23.574 41.88 23.73 41.6766 23.9376C41.5763 24.0435 41.4898 24.1609 41.4327 24.2897C41.4047 24.3484 41.378 24.4314 41.3513 24.5115C41.3285 24.5931 41.303 24.6747 41.2852 24.7592C41.2065 25.0955 41.1721 25.4519 41.1836 25.7997C41.1925 26.1461 41.2522 26.4896 41.3742 26.773C41.5 27.055 41.6881 27.2439 41.9308 27.304C42.1748 27.3699 42.476 27.2983 42.7619 27.1738C43.0504 27.0464 43.3312 26.8575 43.6019 26.6514C44.142 26.2191 44.6732 25.7453 45.1319 25.21C45.5882 24.6747 45.9821 24.0678 46.1854 23.3922C46.2757 23.053 46.3151 22.7024 46.2744 22.3574C46.2274 22.0139 46.099 21.6875 45.9173 21.3941C45.869 21.324 45.8245 21.2481 45.7724 21.1794L45.606 20.9819C45.4929 20.8531 45.3709 20.74 45.2374 20.6513C44.9718 20.4695 44.6618 20.3822 44.3466 20.4122C44.0314 20.4351 43.7175 20.5597 43.4278 20.7357C43.1355 20.9103 42.8648 21.1379 42.6094 21.3855C42.1024 21.8879 41.6601 22.4762 41.2611 23.1003C41.2509 23.116 41.2306 23.1203 41.2166 23.1088C41.2026 23.0974 41.1988 23.0774 41.2077 23.0602C41.5699 22.4032 41.9855 21.7777 42.4849 21.2324C42.7365 20.9619 43.0059 20.71 43.3096 20.5039C43.6121 20.2977 43.9501 20.1374 44.3186 20.0873C44.6859 20.0329 45.0748 20.126 45.4001 20.3307C45.564 20.4309 45.7127 20.5582 45.8449 20.6985L46.0393 20.9118C46.1016 20.9862 46.1549 21.0707 46.2134 21.1494C46.4345 21.4771 46.6035 21.8636 46.6747 22.283C46.7395 22.7024 46.7039 23.1317 46.6099 23.5339C46.4002 24.3355 45.9783 25.0154 45.503 25.6008C45.0227 26.189 44.4877 26.6929 43.9234 27.1681C43.635 27.4028 43.3261 27.6189 42.9792 27.7807C42.8903 27.8179 42.8064 27.8622 42.7111 27.8894L42.5726 27.9352L42.4264 27.9667C42.2307 28.0039 42.021 28.0183 41.8063 27.9653C41.594 27.9166 41.3844 27.8064 41.2166 27.6475C41.0476 27.4901 40.918 27.294 40.8239 27.0908C40.6397 26.6814 40.566 26.2506 40.5482 25.8298C40.5317 25.4075 40.5711 24.9882 40.6626 24.5788C40.6842 24.4758 40.7134 24.3741 40.7426 24.2725C40.7769 24.1723 40.8062 24.0736 40.857 23.9605C40.9536 23.7443 41.087 23.5583 41.237 23.4023C41.5407 23.0931 41.8965 22.887 42.3006 22.794C42.4023 22.7725 42.509 22.7582 42.6234 22.7596C42.7378 22.7625 42.8636 22.7782 43.0084 22.8512C43.0809 22.8913 43.1584 22.95 43.2232 23.0387C43.288 23.126 43.3325 23.2448 43.3439 23.3493C43.3681 23.5626 43.316 23.7143 43.2702 23.8374C43.1698 24.0793 43.0428 24.2453 42.9157 24.4042C42.7861 24.5602 42.6514 24.699 42.5154 24.8307C42.2409 25.0926 41.955 25.326 41.6665 25.5478C41.0857 25.9858 40.4923 26.3909 39.8594 26.7444C39.543 26.9204 39.2151 27.0779 38.8707 27.2024C38.5263 27.3269 38.1629 27.4243 37.7715 27.4243C37.5771 27.4286 37.3725 27.3942 37.1729 27.3226C36.9722 27.2525 36.7803 27.1223 36.6265 26.9562C36.4715 26.7902 36.3546 26.5912 36.2694 26.3894C36.183 26.1862 36.1309 25.9772 36.0915 25.7697C36.014 25.356 36.0013 24.9481 36 24.5545L36.0013 24.2625C36.0025 24.1652 36.0076 24.0564 36.0114 23.9548L36.0394 23.6485L36.0826 23.3479C36.2173 22.5564 36.4473 21.8092 36.7155 21.0864C37.2505 19.6393 37.9278 18.2824 38.6433 16.9585C38.825 16.6278 39.0042 16.3029 39.1948 15.9737C39.3867 15.6417 39.6027 15.3254 39.8365 15.0262C40.0754 14.7314 40.3347 14.4522 40.6232 14.2104C40.9129 13.9713 41.2331 13.7681 41.5801 13.6321C41.9257 13.4947 42.3044 13.4317 42.6819 13.4861C42.8699 13.5076 43.0555 13.5706 43.2308 13.6536C43.4062 13.7409 43.5676 13.8625 43.7125 14.0071C43.9933 14.3034 44.1903 14.697 44.2653 15.1107C44.3453 15.5243 44.3288 15.9494 44.25 16.3487C44.2093 16.5477 44.156 16.7424 44.0886 16.9313C44.0238 17.1174 43.9552 17.292 43.8853 17.4709C43.743 17.8259 43.5943 18.1794 43.4176 18.5215C43.33 18.6932 43.2346 18.8621 43.1241 19.0253C43.0694 19.1069 43.0072 19.187 42.936 19.2643C42.8598 19.3373 42.7822 19.4218 42.6374 19.459C42.5662 19.4776 42.4671 19.4647 42.3985 19.4132C42.3273 19.3645 42.2866 19.3001 42.2561 19.2414C42.2015 19.1255 42.1748 19.0153 42.1583 18.9108C42.124 18.7004 42.1189 18.5 42.1189 18.3011C42.1214 17.9032 42.1557 17.5138 42.2002 17.1274C42.218 16.9341 42.2561 16.7409 42.293 16.5477C42.3286 16.3545 42.3616 16.1598 42.415 15.9752C42.5116 15.6016 42.6056 15.2266 42.7212 14.863L42.8865 14.3134C42.9424 14.1302 43.0046 13.9499 43.0631 13.7695C43.5371 12.3196 44.0543 10.8897 44.5893 9.46984C45.6581 6.62868 46.7802 3.81614 47.9379 1.02078C47.9455 1.00217 47.9646 0.995018 47.9798 1.00361C47.9976 1.01362 48.004 1.03509 47.9976 1.05227Z" fill="#FD464B"/>
<path d="M47.9976 1.05227C46.8793 3.86624 45.7953 6.69738 44.7672 9.55285C44.2526 10.9799 43.7569 12.4169 43.3045 13.8668C43.2486 14.0486 43.1889 14.229 43.1368 14.4107L42.9805 14.9589C42.8699 15.3225 42.7835 15.6918 42.6933 16.0596C42.6425 16.2428 42.6145 16.4275 42.5827 16.6121C42.5497 16.7967 42.5166 16.98 42.5014 17.1703C42.4633 17.5482 42.4353 17.9289 42.4379 18.3025C42.4391 18.4886 42.448 18.6746 42.4773 18.8435C42.49 18.9294 42.5154 19.0053 42.5395 19.0597C42.5522 19.084 42.5649 19.0983 42.5688 19.0997C42.5688 19.0997 42.5688 19.1026 42.5688 19.0997C42.5662 19.1026 42.5713 19.0983 42.5751 19.0983C42.5992 19.0954 42.659 19.0496 42.7085 18.9952C42.7594 18.9366 42.8102 18.8722 42.8585 18.7992C42.9538 18.656 43.0415 18.4971 43.1228 18.334C43.2867 18.0076 43.4291 17.6627 43.5638 17.3134C43.6299 17.1403 43.6985 16.9599 43.7557 16.7867C43.8141 16.615 43.8599 16.4403 43.8942 16.2643C43.9603 15.9108 43.9679 15.5472 43.898 15.208C43.8332 14.8673 43.6718 14.5625 43.452 14.3334C43.227 14.1116 42.9398 13.9699 42.6348 13.9355C42.3311 13.8955 42.0147 13.9499 41.7173 14.0729C41.4187 14.1946 41.1366 14.3764 40.8773 14.5954C40.6193 14.8172 40.383 15.0763 40.1644 15.3525C39.9496 15.6345 39.7501 15.9337 39.5709 16.25C39.3905 16.5692 39.2126 16.8998 39.0372 17.2276C38.3433 18.5444 37.6902 19.8941 37.1857 21.3025C36.9353 22.0053 36.7256 22.7267 36.6125 23.4524L36.5769 23.7243L36.5566 23.9934L36.5515 24.2625L36.5541 24.5487C36.5591 24.9238 36.5782 25.2916 36.6468 25.6323C36.7129 25.9729 36.8362 26.2806 37.0255 26.4753C37.2111 26.6743 37.4754 26.7558 37.7689 26.7487C38.0625 26.7444 38.3739 26.6614 38.6776 26.544C38.9826 26.4281 39.285 26.2778 39.5798 26.1075C40.1708 25.7711 40.7477 25.3703 41.3005 24.9452C41.575 24.7305 41.8431 24.5072 42.0884 24.2682C42.2104 24.1494 42.3273 24.0249 42.4315 23.8989C42.5319 23.773 42.6259 23.637 42.6704 23.5297C42.6933 23.4781 42.6933 23.4366 42.6933 23.4581C42.6946 23.4667 42.7035 23.4924 42.7136 23.5068C42.7238 23.5211 42.7301 23.5225 42.7263 23.5196C42.7136 23.5125 42.6679 23.4982 42.6107 23.4982C42.5548 23.4967 42.49 23.5039 42.4239 23.5168C42.157 23.574 41.88 23.73 41.6766 23.9376C41.5763 24.0435 41.4898 24.1609 41.4327 24.2897C41.4047 24.3484 41.378 24.4314 41.3513 24.5115C41.3285 24.5931 41.303 24.6747 41.2852 24.7592C41.2065 25.0955 41.1721 25.4519 41.1836 25.7997C41.1925 26.1461 41.2522 26.4896 41.3742 26.773C41.5 27.055 41.6881 27.2439 41.9308 27.304C42.1748 27.3699 42.476 27.2983 42.7619 27.1738C43.0504 27.0464 43.3312 26.8575 43.6019 26.6514C44.142 26.2191 44.6732 25.7453 45.1319 25.21C45.5882 24.6747 45.9821 24.0678 46.1854 23.3922C46.2757 23.053 46.3151 22.7024 46.2744 22.3574C46.2274 22.0139 46.099 21.6875 45.9173 21.3941C45.869 21.324 45.8245 21.2481 45.7724 21.1794L45.606 20.9819C45.4929 20.8531 45.3709 20.74 45.2374 20.6513C44.9718 20.4695 44.6618 20.3822 44.3466 20.4122C44.0314 20.4351 43.7175 20.5597 43.4278 20.7357C43.1355 20.9103 42.8648 21.1379 42.6094 21.3855C42.1024 21.8879 41.6601 22.4762 41.2611 23.1003C41.2509 23.116 41.2306 23.1203 41.2166 23.1088C41.2026 23.0974 41.1988 23.0774 41.2077 23.0602C41.5699 22.4032 41.9855 21.7777 42.4849 21.2324C42.7365 20.9619 43.0059 20.71 43.3096 20.5039C43.6121 20.2977 43.9501 20.1374 44.3186 20.0873C44.6859 20.0329 45.0748 20.126 45.4001 20.3307C45.564 20.4309 45.7127 20.5582 45.8449 20.6985L46.0393 20.9118C46.1016 20.9862 46.1549 21.0707 46.2134 21.1494C46.4345 21.4771 46.6035 21.8636 46.6747 22.283C46.7395 22.7024 46.7039 23.1317 46.6099 23.5339C46.4002 24.3355 45.9783 25.0154 45.503 25.6008C45.0227 26.189 44.4877 26.6929 43.9234 27.1681C43.635 27.4028 43.3261 27.6189 42.9792 27.7807C42.8903 27.8179 42.8064 27.8622 42.7111 27.8894L42.5726 27.9352L42.4264 27.9667C42.2307 28.0039 42.021 28.0183 41.8063 27.9653C41.594 27.9166 41.3844 27.8064 41.2166 27.6475C41.0476 27.4901 40.918 27.294 40.8239 27.0908C40.6397 26.6814 40.566 26.2506 40.5482 25.8298C40.5317 25.4075 40.5711 24.9882 40.6626 24.5788C40.6842 24.4758 40.7134 24.3741 40.7426 24.2725C40.7769 24.1723 40.8062 24.0736 40.857 23.9605C40.9536 23.7443 41.087 23.5583 41.237 23.4023C41.5407 23.0931 41.8965 22.887 42.3006 22.794C42.4023 22.7725 42.509 22.7582 42.6234 22.7596C42.7378 22.7625 42.8636 22.7782 43.0084 22.8512C43.0809 22.8913 43.1584 22.95 43.2232 23.0387C43.288 23.126 43.3325 23.2448 43.3439 23.3493C43.3681 23.5626 43.316 23.7143 43.2702 23.8374C43.1698 24.0793 43.0428 24.2453 42.9157 24.4042C42.7861 24.5602 42.6514 24.699 42.5154 24.8307C42.2409 25.0926 41.955 25.326 41.6665 25.5478C41.0857 25.9858 40.4923 26.3909 39.8594 26.7444C39.543 26.9204 39.2151 27.0779 38.8707 27.2024C38.5263 27.3269 38.1629 27.4243 37.7715 27.4243C37.5771 27.4286 37.3725 27.3942 37.1729 27.3226C36.9722 27.2525 36.7803 27.1223 36.6265 26.9562C36.4715 26.7902 36.3546 26.5912 36.2694 26.3894C36.183 26.1862 36.1309 25.9772 36.0915 25.7697C36.014 25.356 36.0013 24.9481 36 24.5545L36.0013 24.2625C36.0025 24.1652 36.0076 24.0564 36.0114 23.9548L36.0394 23.6485L36.0826 23.3479C36.2173 22.5564 36.4473 21.8092 36.7155 21.0864C37.2505 19.6393 37.9278 18.2824 38.6433 16.9585C38.825 16.6278 39.0042 16.3029 39.1948 15.9737C39.3867 15.6417 39.6027 15.3254 39.8365 15.0262C40.0754 14.7314 40.3347 14.4522 40.6232 14.2104C40.9129 13.9713 41.2331 13.7681 41.5801 13.6321C41.9257 13.4947 42.3044 13.4317 42.6819 13.4861C42.8699 13.5076 43.0555 13.5706 43.2308 13.6536C43.4062 13.7409 43.5676 13.8625 43.7125 14.0071C43.9933 14.3034 44.1903 14.697 44.2653 15.1107C44.3453 15.5243 44.3288 15.9494 44.25 16.3487C44.2093 16.5477 44.156 16.7424 44.0886 16.9313C44.0238 17.1174 43.9552 17.292 43.8853 17.4709C43.743 17.8259 43.5943 18.1794 43.4176 18.5215C43.33 18.6932 43.2346 18.8621 43.1241 19.0253C43.0694 19.1069 43.0072 19.187 42.936 19.2643C42.8598 19.3373 42.7822 19.4218 42.6374 19.459C42.5662 19.4776 42.4671 19.4647 42.3985 19.4132C42.3273 19.3645 42.2866 19.3001 42.2561 19.2414C42.2015 19.1255 42.1748 19.0153 42.1583 18.9108C42.124 18.7004 42.1189 18.5 42.1189 18.3011C42.1214 17.9032 42.1557 17.5138 42.2002 17.1274C42.218 16.9341 42.2561 16.7409 42.293 16.5477C42.3286 16.3545 42.3616 16.1598 42.415 15.9752C42.5116 15.6016 42.6056 15.2266 42.7212 14.863L42.8865 14.3134C42.9424 14.1302 43.0046 13.9499 43.0631 13.7695C43.5371 12.3196 44.0543 10.8897 44.5893 9.46984C45.6581 6.62868 46.7802 3.81614 47.9379 1.02078C47.9455 1.00217 47.9646 0.995018 47.9798 1.00361C47.9976 1.01362 48.004 1.03509 47.9976 1.05227Z" stroke="#FD464B" stroke-width="0.6" mask="url(#path-4-outside-2)"/>
<path d="M46.2488 38.9737C46.2594 38.8683 46.2683 38.7655 46.277 38.6642C46.2966 38.4353 46.3156 38.2144 46.3535 37.9904L46.3535 37.9904L46.354 37.9873C46.3641 37.9194 46.3726 37.8547 46.381 37.7916C46.3943 37.6916 46.407 37.5952 46.4245 37.4948C46.4245 37.4946 46.4246 37.4944 46.4246 37.4942L46.5148 37.0014L46.5148 37.0011C46.6332 36.3475 46.7804 35.6972 46.9323 35.0455C46.9577 34.9414 46.983 34.8373 47.0083 34.7333C47.1412 34.1867 47.2734 33.6428 47.4201 33.1017L47.4206 33.1C47.4347 33.0455 47.4487 32.991 47.4627 32.9365C47.5321 32.6672 47.6012 32.3989 47.6759 32.1316L47.6761 32.131C47.7063 32.0215 47.7356 31.9127 47.7647 31.8043C47.8226 31.5895 47.8799 31.3766 47.9425 31.1635L47.9425 31.1635L47.9431 31.1613L49.0183 27.2844L49.0186 27.2835C49.3687 25.9894 49.7463 24.7019 50.1297 23.4145C50.9045 20.8437 51.7204 18.2838 52.5624 15.7333L52.5626 15.7327C53.3935 13.1786 54.2587 10.6341 55.139 8.09612C55.156 8.04889 55.1516 8.00193 55.137 7.96474C55.1234 7.92978 55.0945 7.88852 55.0447 7.86588L55.0448 7.8657L55.0375 7.86285C54.946 7.82688 54.835 7.86855 54.7971 7.96921L54.9374 8.02205C54.9373 8.02237 54.9372 8.02269 54.9371 8.02301C54.9369 8.02354 54.9367 8.02407 54.9364 8.02459C54.9233 8.05808 54.9101 8.09158 54.8969 8.12508L46.2488 38.9737ZM45.8577 37.8599C45.857 37.8877 45.8564 37.9153 45.8557 37.9428L54.7979 7.96709C53.8124 10.47 52.8777 12.9921 51.9585 15.5189L51.9582 15.5195C51.0498 18.051 50.1673 20.5939 49.3244 23.1525L49.3243 23.1529C49.25 23.3805 49.1754 23.6081 49.1009 23.8358C48.3379 26.166 47.5718 28.5059 46.9926 30.9055L46.9925 30.9057C46.6771 32.22 46.3844 33.5454 46.1685 34.8888C46.0599 35.5604 45.9689 36.2361 45.911 36.9183H45.911L45.9108 36.9197L45.8725 37.4278L45.8725 37.4278L45.8723 37.4306C45.8642 37.5741 45.8609 37.7188 45.8577 37.8599Z" fill="#FD464B" stroke="#FD464B" stroke-width="0.3"/>
<mask id="path-6-outside-3" maskUnits="userSpaceOnUse" x="49" y="19" width="11" height="9" fill="black">
<rect fill="white" x="49" y="19" width="11" height="9"/>
<path d="M50.0073 24.9278L51.5903 22.9128C52.119 22.2391 52.6492 21.5802 53.1779 20.8963C53.2489 20.8106 53.3184 20.7278 53.409 20.6451C53.4332 20.6244 53.4574 20.6038 53.4966 20.5801L53.5299 20.5639C53.5404 20.558 53.5691 20.5521 53.5888 20.5491C53.6009 20.5432 53.6583 20.5491 53.69 20.5668C53.7232 20.5831 53.7459 20.6126 53.764 20.6436C53.7957 20.7293 53.7821 20.7633 53.7806 20.7988C53.7761 20.8327 53.77 20.8638 53.7625 20.8918C53.7021 21.1179 53.619 21.3114 53.5359 21.5123C53.3652 21.9082 53.1855 22.2893 53.0148 22.6794C52.6764 23.4535 52.3305 24.2379 52.0541 25.0179L52.0465 25.0371L52.0435 25.043C51.8985 25.3636 51.767 25.7078 51.6915 26.0387C51.6538 26.2012 51.6371 26.377 51.6628 26.4804C51.6674 26.4893 51.6704 26.5011 51.6719 26.51C51.6764 26.5129 51.6794 26.5174 51.6794 26.5233C51.6825 26.5218 51.6825 26.5218 51.6809 26.5247C51.6825 26.5233 51.684 26.5218 51.684 26.5247C51.696 26.5262 51.7504 26.5307 51.8184 26.51C51.9544 26.4745 52.113 26.3918 52.261 26.3061C52.4121 26.2145 52.5601 26.1155 52.7066 26.0092C52.9997 25.7979 53.2806 25.5601 53.5631 25.3237C54.1235 24.8465 54.6643 24.3487 55.1446 23.8095C55.3863 23.5406 55.6099 23.2599 55.8017 22.9689C55.8999 22.8241 55.983 22.6749 56.057 22.5257C56.0902 22.4518 56.125 22.3765 56.1477 22.3056C56.1628 22.2687 56.1688 22.2362 56.1794 22.2022C56.1839 22.1859 56.1854 22.1726 56.1884 22.1579C56.1899 22.149 56.1899 22.146 56.1899 22.1416V22.1357C56.1899 22.1328 56.1884 22.1446 56.1899 22.1475L56.2005 22.2288C56.2035 22.2391 56.1975 22.2214 56.1945 22.217C56.1915 22.2096 56.1869 22.2022 56.1839 22.1963C56.1763 22.1845 56.1703 22.1771 56.1703 22.1785C56.1703 22.18 56.1779 22.1904 56.1975 22.1992C56.2186 22.2081 56.2428 22.214 56.2579 22.2111C56.2836 22.2081 56.2579 22.214 56.2277 22.2391C56.1945 22.2642 56.1552 22.3041 56.1159 22.347C55.9558 22.5287 55.8093 22.7769 55.6748 23.0236C55.6069 23.1477 55.5419 23.2762 55.4785 23.4047C55.415 23.5347 55.3531 23.6677 55.3032 23.7873C55.202 24.0311 55.128 24.2866 55.1341 24.4979C55.1401 24.7151 55.2036 24.8451 55.3425 24.9352C55.486 25.0268 55.7277 25.0667 55.9724 25.046C56.4694 25.0002 56.9966 24.7771 57.3712 24.4285C57.5645 24.2571 57.702 24.0532 57.8334 23.808C57.9618 23.5657 58.0691 23.3028 58.1612 23.0339C58.3395 22.4947 58.4754 21.9289 58.5117 21.369C58.5253 21.0927 58.5222 20.8061 58.4392 20.5801C58.3969 20.4664 58.3364 20.3895 58.2609 20.3585C58.1854 20.3231 58.063 20.3334 57.9392 20.3777C57.6884 20.4678 57.4452 20.6466 57.2186 20.8298C56.992 21.0189 56.773 21.2213 56.5631 21.434C56.5479 21.4488 56.5253 21.4488 56.5102 21.4355C56.4966 21.4222 56.4951 21.4015 56.5057 21.3867C56.6824 21.1444 56.8697 20.9081 57.0797 20.685C57.2911 20.4649 57.5147 20.2492 57.8183 20.097C57.8969 20.0616 57.9784 20.0291 58.0736 20.0114C58.1673 19.9951 58.2745 19.9936 58.3787 20.0247C58.483 20.0542 58.5781 20.1162 58.6491 20.1886C58.7201 20.261 58.773 20.3423 58.8108 20.422C58.9618 20.7456 58.989 21.0647 58.9996 21.3779C59.0071 22.0028 58.915 22.6099 58.7518 23.2067C58.6688 23.5052 58.5706 23.7991 58.4376 24.0916C58.3092 24.3797 58.1174 24.684 57.8712 24.9219C57.6295 25.1642 57.347 25.3592 57.0404 25.5069C56.7353 25.6576 56.4029 25.7566 56.048 25.795C55.8712 25.8156 55.6854 25.8112 55.4966 25.7846C55.3078 25.7566 55.1099 25.6989 54.9256 25.5822C54.7413 25.47 54.5797 25.2956 54.4845 25.0977C54.3909 24.9012 54.3486 24.6914 54.3531 24.5038C54.3546 24.1212 54.4679 23.7977 54.5948 23.4978C54.6628 23.3456 54.7308 23.2097 54.8017 23.0753C54.8727 22.9394 54.9468 22.8049 55.0253 22.669C55.1869 22.4001 55.3501 22.1357 55.5948 21.8742C55.6582 21.8092 55.7262 21.7442 55.8153 21.6807C55.906 21.6201 56.0177 21.5507 56.1945 21.53C56.2836 21.5226 56.3863 21.5345 56.4769 21.5743C56.5661 21.6127 56.6356 21.6689 56.6854 21.725C56.7368 21.7812 56.77 21.8358 56.7987 21.8905C56.8123 21.9171 56.8244 21.9437 56.8349 21.9717C56.847 22.0013 56.8531 22.019 56.8652 22.0663L56.8667 22.0707C56.8727 22.0958 56.8757 22.1224 56.8757 22.1475C56.8757 22.1623 56.8742 22.1859 56.8727 22.1933L56.8697 22.2214C56.8667 22.2406 56.8637 22.2598 56.8606 22.2731C56.8531 22.3026 56.847 22.3351 56.8395 22.3632C56.8229 22.4179 56.8078 22.474 56.7866 22.5228C56.7488 22.6262 56.7035 22.7178 56.6582 22.8108C56.563 22.9896 56.4588 23.1609 56.344 23.319C56.1189 23.6396 55.8682 23.9321 55.6039 24.2084C55.0782 24.7623 54.5087 25.2617 53.9211 25.7344C53.6265 25.9693 53.332 26.2056 53.0133 26.4213C52.69 26.6341 52.3788 26.8542 51.9347 26.9753C51.8199 26.999 51.6809 27.0211 51.5133 26.9635C51.471 26.9443 51.4302 26.9221 51.3924 26.897C51.3577 26.8675 51.3245 26.8335 51.2958 26.7995C51.2746 26.7655 51.2535 26.7286 51.2353 26.6917C51.2217 26.6577 51.2127 26.6237 51.2036 26.5897C51.1764 26.4597 51.1779 26.3445 51.19 26.2411C51.2006 26.1347 51.2217 26.0358 51.2459 25.9397C51.3456 25.5556 51.4891 25.2114 51.6583 24.8628L51.6477 24.8864C51.8033 24.4728 51.974 24.0887 52.1492 23.6972C52.3244 23.3072 52.5057 22.9216 52.693 22.5375C52.8773 22.1534 53.0737 21.7723 53.2534 21.3926C53.341 21.2035 53.4302 21.0071 53.4861 20.8254C53.4936 20.8017 53.4981 20.7825 53.5012 20.7633C53.5072 20.7471 53.4981 20.7278 53.5117 20.7618C53.5193 20.7825 53.5374 20.7973 53.5586 20.8091C53.5691 20.8165 53.5842 20.8209 53.5963 20.8224H53.6205C53.6265 20.8239 53.6401 20.8165 53.6401 20.818C53.6401 20.8194 53.6386 20.8194 53.6371 20.8194C53.6296 20.8239 53.6114 20.8357 53.5948 20.8505C53.5253 20.9096 53.4528 20.9864 53.3848 21.0647C52.8456 21.7147 52.2821 22.3706 51.7323 23.0221L50.0692 24.9765C50.0556 24.9928 50.0314 24.9943 50.0163 24.981C49.9982 24.9662 49.9952 24.944 50.0073 24.9278Z"/>
</mask>
<path d="M50.0073 24.9278L51.5903 22.9128C52.119 22.2391 52.6492 21.5802 53.1779 20.8963C53.2489 20.8106 53.3184 20.7278 53.409 20.6451C53.4332 20.6244 53.4574 20.6038 53.4966 20.5801L53.5299 20.5639C53.5404 20.558 53.5691 20.5521 53.5888 20.5491C53.6009 20.5432 53.6583 20.5491 53.69 20.5668C53.7232 20.5831 53.7459 20.6126 53.764 20.6436C53.7957 20.7293 53.7821 20.7633 53.7806 20.7988C53.7761 20.8327 53.77 20.8638 53.7625 20.8918C53.7021 21.1179 53.619 21.3114 53.5359 21.5123C53.3652 21.9082 53.1855 22.2893 53.0148 22.6794C52.6764 23.4535 52.3305 24.2379 52.0541 25.0179L52.0465 25.0371L52.0435 25.043C51.8985 25.3636 51.767 25.7078 51.6915 26.0387C51.6538 26.2012 51.6371 26.377 51.6628 26.4804C51.6674 26.4893 51.6704 26.5011 51.6719 26.51C51.6764 26.5129 51.6794 26.5174 51.6794 26.5233C51.6825 26.5218 51.6825 26.5218 51.6809 26.5247C51.6825 26.5233 51.684 26.5218 51.684 26.5247C51.696 26.5262 51.7504 26.5307 51.8184 26.51C51.9544 26.4745 52.113 26.3918 52.261 26.3061C52.4121 26.2145 52.5601 26.1155 52.7066 26.0092C52.9997 25.7979 53.2806 25.5601 53.5631 25.3237C54.1235 24.8465 54.6643 24.3487 55.1446 23.8095C55.3863 23.5406 55.6099 23.2599 55.8017 22.9689C55.8999 22.8241 55.983 22.6749 56.057 22.5257C56.0902 22.4518 56.125 22.3765 56.1477 22.3056C56.1628 22.2687 56.1688 22.2362 56.1794 22.2022C56.1839 22.1859 56.1854 22.1726 56.1884 22.1579C56.1899 22.149 56.1899 22.146 56.1899 22.1416V22.1357C56.1899 22.1328 56.1884 22.1446 56.1899 22.1475L56.2005 22.2288C56.2035 22.2391 56.1975 22.2214 56.1945 22.217C56.1915 22.2096 56.1869 22.2022 56.1839 22.1963C56.1763 22.1845 56.1703 22.1771 56.1703 22.1785C56.1703 22.18 56.1779 22.1904 56.1975 22.1992C56.2186 22.2081 56.2428 22.214 56.2579 22.2111C56.2836 22.2081 56.2579 22.214 56.2277 22.2391C56.1945 22.2642 56.1552 22.3041 56.1159 22.347C55.9558 22.5287 55.8093 22.7769 55.6748 23.0236C55.6069 23.1477 55.5419 23.2762 55.4785 23.4047C55.415 23.5347 55.3531 23.6677 55.3032 23.7873C55.202 24.0311 55.128 24.2866 55.1341 24.4979C55.1401 24.7151 55.2036 24.8451 55.3425 24.9352C55.486 25.0268 55.7277 25.0667 55.9724 25.046C56.4694 25.0002 56.9966 24.7771 57.3712 24.4285C57.5645 24.2571 57.702 24.0532 57.8334 23.808C57.9618 23.5657 58.0691 23.3028 58.1612 23.0339C58.3395 22.4947 58.4754 21.9289 58.5117 21.369C58.5253 21.0927 58.5222 20.8061 58.4392 20.5801C58.3969 20.4664 58.3364 20.3895 58.2609 20.3585C58.1854 20.3231 58.063 20.3334 57.9392 20.3777C57.6884 20.4678 57.4452 20.6466 57.2186 20.8298C56.992 21.0189 56.773 21.2213 56.5631 21.434C56.5479 21.4488 56.5253 21.4488 56.5102 21.4355C56.4966 21.4222 56.4951 21.4015 56.5057 21.3867C56.6824 21.1444 56.8697 20.9081 57.0797 20.685C57.2911 20.4649 57.5147 20.2492 57.8183 20.097C57.8969 20.0616 57.9784 20.0291 58.0736 20.0114C58.1673 19.9951 58.2745 19.9936 58.3787 20.0247C58.483 20.0542 58.5781 20.1162 58.6491 20.1886C58.7201 20.261 58.773 20.3423 58.8108 20.422C58.9618 20.7456 58.989 21.0647 58.9996 21.3779C59.0071 22.0028 58.915 22.6099 58.7518 23.2067C58.6688 23.5052 58.5706 23.7991 58.4376 24.0916C58.3092 24.3797 58.1174 24.684 57.8712 24.9219C57.6295 25.1642 57.347 25.3592 57.0404 25.5069C56.7353 25.6576 56.4029 25.7566 56.048 25.795C55.8712 25.8156 55.6854 25.8112 55.4966 25.7846C55.3078 25.7566 55.1099 25.6989 54.9256 25.5822C54.7413 25.47 54.5797 25.2956 54.4845 25.0977C54.3909 24.9012 54.3486 24.6914 54.3531 24.5038C54.3546 24.1212 54.4679 23.7977 54.5948 23.4978C54.6628 23.3456 54.7308 23.2097 54.8017 23.0753C54.8727 22.9394 54.9468 22.8049 55.0253 22.669C55.1869 22.4001 55.3501 22.1357 55.5948 21.8742C55.6582 21.8092 55.7262 21.7442 55.8153 21.6807C55.906 21.6201 56.0177 21.5507 56.1945 21.53C56.2836 21.5226 56.3863 21.5345 56.4769 21.5743C56.5661 21.6127 56.6356 21.6689 56.6854 21.725C56.7368 21.7812 56.77 21.8358 56.7987 21.8905C56.8123 21.9171 56.8244 21.9437 56.8349 21.9717C56.847 22.0013 56.8531 22.019 56.8652 22.0663L56.8667 22.0707C56.8727 22.0958 56.8757 22.1224 56.8757 22.1475C56.8757 22.1623 56.8742 22.1859 56.8727 22.1933L56.8697 22.2214C56.8667 22.2406 56.8637 22.2598 56.8606 22.2731C56.8531 22.3026 56.847 22.3351 56.8395 22.3632C56.8229 22.4179 56.8078 22.474 56.7866 22.5228C56.7488 22.6262 56.7035 22.7178 56.6582 22.8108C56.563 22.9896 56.4588 23.1609 56.344 23.319C56.1189 23.6396 55.8682 23.9321 55.6039 24.2084C55.0782 24.7623 54.5087 25.2617 53.9211 25.7344C53.6265 25.9693 53.332 26.2056 53.0133 26.4213C52.69 26.6341 52.3788 26.8542 51.9347 26.9753C51.8199 26.999 51.6809 27.0211 51.5133 26.9635C51.471 26.9443 51.4302 26.9221 51.3924 26.897C51.3577 26.8675 51.3245 26.8335 51.2958 26.7995C51.2746 26.7655 51.2535 26.7286 51.2353 26.6917C51.2217 26.6577 51.2127 26.6237 51.2036 26.5897C51.1764 26.4597 51.1779 26.3445 51.19 26.2411C51.2006 26.1347 51.2217 26.0358 51.2459 25.9397C51.3456 25.5556 51.4891 25.2114 51.6583 24.8628L51.6477 24.8864C51.8033 24.4728 51.974 24.0887 52.1492 23.6972C52.3244 23.3072 52.5057 22.9216 52.693 22.5375C52.8773 22.1534 53.0737 21.7723 53.2534 21.3926C53.341 21.2035 53.4302 21.0071 53.4861 20.8254C53.4936 20.8017 53.4981 20.7825 53.5012 20.7633C53.5072 20.7471 53.4981 20.7278 53.5117 20.7618C53.5193 20.7825 53.5374 20.7973 53.5586 20.8091C53.5691 20.8165 53.5842 20.8209 53.5963 20.8224H53.6205C53.6265 20.8239 53.6401 20.8165 53.6401 20.818C53.6401 20.8194 53.6386 20.8194 53.6371 20.8194C53.6296 20.8239 53.6114 20.8357 53.5948 20.8505C53.5253 20.9096 53.4528 20.9864 53.3848 21.0647C52.8456 21.7147 52.2821 22.3706 51.7323 23.0221L50.0692 24.9765C50.0556 24.9928 50.0314 24.9943 50.0163 24.981C49.9982 24.9662 49.9952 24.944 50.0073 24.9278Z" fill="#FD464B"/>
<path d="M50.0073 24.9278L51.5903 22.9128C52.119 22.2391 52.6492 21.5802 53.1779 20.8963C53.2489 20.8106 53.3184 20.7278 53.409 20.6451C53.4332 20.6244 53.4574 20.6038 53.4966 20.5801L53.5299 20.5639C53.5404 20.558 53.5691 20.5521 53.5888 20.5491C53.6009 20.5432 53.6583 20.5491 53.69 20.5668C53.7232 20.5831 53.7459 20.6126 53.764 20.6436C53.7957 20.7293 53.7821 20.7633 53.7806 20.7988C53.7761 20.8327 53.77 20.8638 53.7625 20.8918C53.7021 21.1179 53.619 21.3114 53.5359 21.5123C53.3652 21.9082 53.1855 22.2893 53.0148 22.6794C52.6764 23.4535 52.3305 24.2379 52.0541 25.0179L52.0465 25.0371L52.0435 25.043C51.8985 25.3636 51.767 25.7078 51.6915 26.0387C51.6538 26.2012 51.6371 26.377 51.6628 26.4804C51.6674 26.4893 51.6704 26.5011 51.6719 26.51C51.6764 26.5129 51.6794 26.5174 51.6794 26.5233C51.6825 26.5218 51.6825 26.5218 51.6809 26.5247C51.6825 26.5233 51.684 26.5218 51.684 26.5247C51.696 26.5262 51.7504 26.5307 51.8184 26.51C51.9544 26.4745 52.113 26.3918 52.261 26.3061C52.4121 26.2145 52.5601 26.1155 52.7066 26.0092C52.9997 25.7979 53.2806 25.5601 53.5631 25.3237C54.1235 24.8465 54.6643 24.3487 55.1446 23.8095C55.3863 23.5406 55.6099 23.2599 55.8017 22.9689C55.8999 22.8241 55.983 22.6749 56.057 22.5257C56.0902 22.4518 56.125 22.3765 56.1477 22.3056C56.1628 22.2687 56.1688 22.2362 56.1794 22.2022C56.1839 22.1859 56.1854 22.1726 56.1884 22.1579C56.1899 22.149 56.1899 22.146 56.1899 22.1416V22.1357C56.1899 22.1328 56.1884 22.1446 56.1899 22.1475L56.2005 22.2288C56.2035 22.2391 56.1975 22.2214 56.1945 22.217C56.1915 22.2096 56.1869 22.2022 56.1839 22.1963C56.1763 22.1845 56.1703 22.1771 56.1703 22.1785C56.1703 22.18 56.1779 22.1904 56.1975 22.1992C56.2186 22.2081 56.2428 22.214 56.2579 22.2111C56.2836 22.2081 56.2579 22.214 56.2277 22.2391C56.1945 22.2642 56.1552 22.3041 56.1159 22.347C55.9558 22.5287 55.8093 22.7769 55.6748 23.0236C55.6069 23.1477 55.5419 23.2762 55.4785 23.4047C55.415 23.5347 55.3531 23.6677 55.3032 23.7873C55.202 24.0311 55.128 24.2866 55.1341 24.4979C55.1401 24.7151 55.2036 24.8451 55.3425 24.9352C55.486 25.0268 55.7277 25.0667 55.9724 25.046C56.4694 25.0002 56.9966 24.7771 57.3712 24.4285C57.5645 24.2571 57.702 24.0532 57.8334 23.808C57.9618 23.5657 58.0691 23.3028 58.1612 23.0339C58.3395 22.4947 58.4754 21.9289 58.5117 21.369C58.5253 21.0927 58.5222 20.8061 58.4392 20.5801C58.3969 20.4664 58.3364 20.3895 58.2609 20.3585C58.1854 20.3231 58.063 20.3334 57.9392 20.3777C57.6884 20.4678 57.4452 20.6466 57.2186 20.8298C56.992 21.0189 56.773 21.2213 56.5631 21.434C56.5479 21.4488 56.5253 21.4488 56.5102 21.4355C56.4966 21.4222 56.4951 21.4015 56.5057 21.3867C56.6824 21.1444 56.8697 20.9081 57.0797 20.685C57.2911 20.4649 57.5147 20.2492 57.8183 20.097C57.8969 20.0616 57.9784 20.0291 58.0736 20.0114C58.1673 19.9951 58.2745 19.9936 58.3787 20.0247C58.483 20.0542 58.5781 20.1162 58.6491 20.1886C58.7201 20.261 58.773 20.3423 58.8108 20.422C58.9618 20.7456 58.989 21.0647 58.9996 21.3779C59.0071 22.0028 58.915 22.6099 58.7518 23.2067C58.6688 23.5052 58.5706 23.7991 58.4376 24.0916C58.3092 24.3797 58.1174 24.684 57.8712 24.9219C57.6295 25.1642 57.347 25.3592 57.0404 25.5069C56.7353 25.6576 56.4029 25.7566 56.048 25.795C55.8712 25.8156 55.6854 25.8112 55.4966 25.7846C55.3078 25.7566 55.1099 25.6989 54.9256 25.5822C54.7413 25.47 54.5797 25.2956 54.4845 25.0977C54.3909 24.9012 54.3486 24.6914 54.3531 24.5038C54.3546 24.1212 54.4679 23.7977 54.5948 23.4978C54.6628 23.3456 54.7308 23.2097 54.8017 23.0753C54.8727 22.9394 54.9468 22.8049 55.0253 22.669C55.1869 22.4001 55.3501 22.1357 55.5948 21.8742C55.6582 21.8092 55.7262 21.7442 55.8153 21.6807C55.906 21.6201 56.0177 21.5507 56.1945 21.53C56.2836 21.5226 56.3863 21.5345 56.4769 21.5743C56.5661 21.6127 56.6356 21.6689 56.6854 21.725C56.7368 21.7812 56.77 21.8358 56.7987 21.8905C56.8123 21.9171 56.8244 21.9437 56.8349 21.9717C56.847 22.0013 56.8531 22.019 56.8652 22.0663L56.8667 22.0707C56.8727 22.0958 56.8757 22.1224 56.8757 22.1475C56.8757 22.1623 56.8742 22.1859 56.8727 22.1933L56.8697 22.2214C56.8667 22.2406 56.8637 22.2598 56.8606 22.2731C56.8531 22.3026 56.847 22.3351 56.8395 22.3632C56.8229 22.4179 56.8078 22.474 56.7866 22.5228C56.7488 22.6262 56.7035 22.7178 56.6582 22.8108C56.563 22.9896 56.4588 23.1609 56.344 23.319C56.1189 23.6396 55.8682 23.9321 55.6039 24.2084C55.0782 24.7623 54.5087 25.2617 53.9211 25.7344C53.6265 25.9693 53.332 26.2056 53.0133 26.4213C52.69 26.6341 52.3788 26.8542 51.9347 26.9753C51.8199 26.999 51.6809 27.0211 51.5133 26.9635C51.471 26.9443 51.4302 26.9221 51.3924 26.897C51.3577 26.8675 51.3245 26.8335 51.2958 26.7995C51.2746 26.7655 51.2535 26.7286 51.2353 26.6917C51.2217 26.6577 51.2127 26.6237 51.2036 26.5897C51.1764 26.4597 51.1779 26.3445 51.19 26.2411C51.2006 26.1347 51.2217 26.0358 51.2459 25.9397C51.3456 25.5556 51.4891 25.2114 51.6583 24.8628L51.6477 24.8864C51.8033 24.4728 51.974 24.0887 52.1492 23.6972C52.3244 23.3072 52.5057 22.9216 52.693 22.5375C52.8773 22.1534 53.0737 21.7723 53.2534 21.3926C53.341 21.2035 53.4302 21.0071 53.4861 20.8254C53.4936 20.8017 53.4981 20.7825 53.5012 20.7633C53.5072 20.7471 53.4981 20.7278 53.5117 20.7618C53.5193 20.7825 53.5374 20.7973 53.5586 20.8091C53.5691 20.8165 53.5842 20.8209 53.5963 20.8224H53.6205C53.6265 20.8239 53.6401 20.8165 53.6401 20.818C53.6401 20.8194 53.6386 20.8194 53.6371 20.8194C53.6296 20.8239 53.6114 20.8357 53.5948 20.8505C53.5253 20.9096 53.4528 20.9864 53.3848 21.0647C52.8456 21.7147 52.2821 22.3706 51.7323 23.0221L50.0692 24.9765C50.0556 24.9928 50.0314 24.9943 50.0163 24.981C49.9982 24.9662 49.9952 24.944 50.0073 24.9278Z" stroke="#FD464B" stroke-width="0.6" mask="url(#path-6-outside-3)"/>
<path d="M71.9377 8.00487L71.9248 7.85543C71.7817 7.86781 71.6593 7.90183 71.5518 7.934L71.5518 7.93396L71.5483 7.93509C71.3284 8.00675 71.1411 8.10131 70.9685 8.19849L70.9685 8.19848L70.967 8.19939C70.6258 8.39696 70.3238 8.61912 70.0403 8.84721L70.0402 8.84724C69.7549 9.07692 69.4872 9.3145 69.2281 9.55676L69.2278 9.55706C68.711 10.0431 68.2285 10.5496 67.768 11.075C67.3071 11.6008 66.8736 12.1464 66.4752 12.7133L66.4748 12.7138C66.0789 13.2822 65.7101 13.8653 65.3795 14.4671L65.379 14.468C65.054 15.0695 64.7554 15.6872 64.5135 16.3246C64.2691 16.9606 64.0723 17.6101 63.9357 18.2717L63.9357 18.2717L63.9353 18.2737C63.8936 18.4907 63.8556 18.7099 63.8254 18.9307C63.6932 19.0179 63.5576 19.102 63.4184 19.1884C63.3463 19.2332 63.2731 19.2786 63.1989 19.3253L63.1989 19.3253L63.1974 19.3263C62.8977 19.5204 62.5985 19.7306 62.3305 19.9784L62.3295 19.9793C62.1993 20.1018 62.065 20.2421 61.964 20.4096L61.964 20.4096L61.962 20.413C61.915 20.4959 61.8673 20.5986 61.8532 20.7165L61.8532 20.7165L61.8529 20.7188C61.8407 20.8363 61.8635 20.9973 62.0074 21.1093C62.082 21.1683 62.1863 21.1609 62.2524 21.1016C62.3389 21.0239 62.3282 20.8967 62.2491 20.8288L62.2462 20.8262L62.2463 20.8261L62.2431 20.8235C62.2432 20.8234 62.2398 20.8198 62.2369 20.8098C62.2335 20.7983 62.2328 20.7846 62.2351 20.7724L62.2352 20.7724L62.2358 20.7689C62.2432 20.7245 62.2666 20.6716 62.3041 20.6126C62.3815 20.4954 62.4899 20.3869 62.6141 20.2794C62.8648 20.0664 63.1485 19.8806 63.4468 19.7025C63.5041 19.6693 63.5625 19.6359 63.6216 19.6021C63.6695 19.5747 63.7178 19.547 63.7664 19.519C63.751 19.7749 63.7505 20.0326 63.7708 20.2913L63.7708 20.2913L63.771 20.2934C63.7804 20.3942 63.8651 20.4548 63.9444 20.4607L63.946 20.4608C64.0307 20.4663 64.137 20.4097 64.1464 20.2914L64.1469 20.2915V20.2841C64.184 19.9072 64.2563 19.5321 64.351 19.1601C64.3563 19.1565 64.3616 19.1529 64.3669 19.1493C64.6645 18.9514 64.9543 18.7466 65.2379 18.5349C66.3691 17.6905 67.4394 16.7903 68.4864 15.8725L68.4864 15.8725L68.4874 15.8716C69.5248 14.9459 70.5479 14.0028 71.5104 12.9953L71.5115 12.9941L71.5207 12.9842C71.7556 12.7328 71.9923 12.4795 72.2126 12.1843L72.213 12.1838C72.4485 11.8652 72.5936 11.5313 72.7229 11.2107L72.7236 11.2088C72.8501 10.8822 72.9534 10.5494 73.0302 10.2077L73.0305 10.2063C73.1035 9.86602 73.1598 9.51309 73.1486 9.13417L73.1486 9.13417L73.1485 9.13224C73.1405 8.94445 73.1178 8.73981 73.0349 8.51958L73.0344 8.51832C72.9909 8.4058 72.9254 8.28443 72.8218 8.17052C72.7154 8.05367 72.5625 7.95213 72.3938 7.90003L72.3934 7.8999C72.2264 7.84888 72.0638 7.84325 71.9246 7.85545L71.9377 8.00487ZM71.9377 8.00487C72.0632 7.99388 72.2056 7.99938 72.3495 8.04335M71.9377 8.00487C71.8106 8.01587 71.7004 8.0461 71.5948 8.07771C71.3881 8.14505 71.2105 8.23437 71.0421 8.32919C70.7099 8.52159 70.4145 8.73871 70.1343 8.96409L72.3495 8.04335M64.5773 18.3872C64.6857 18.3042 64.7933 18.2202 64.8999 18.1353C65.9809 17.2717 67.0064 16.3499 68.0108 15.4084L64.5773 18.3872ZM64.5773 18.3872C64.7735 17.7854 65.0194 17.1965 65.2926 16.6175C65.5785 16.0305 65.8896 15.4544 66.2381 14.8995L66.2388 14.8984C66.5837 14.3391 66.9576 13.7934 67.3588 13.2655L67.3598 13.2642C67.7548 12.7324 68.1807 12.2174 68.6215 11.7122L68.6216 11.7121C69.0625 11.2054 69.5178 10.7079 69.9924 10.2327L69.9927 10.2324C70.2297 9.99374 70.4703 9.76425 70.7208 9.54752L64.5773 18.3872ZM72.3495 8.04335C72.4919 8.08733 72.622 8.1739 72.7108 8.27147C72.7996 8.36905 72.8563 8.47349 72.8945 8.57243L72.3495 8.04335ZM71.5254 11.753L71.5258 11.7525C71.6881 11.5224 71.8066 11.2403 71.9161 10.944C72.0207 10.6515 72.1043 10.35 72.1624 10.049C72.2195 9.74699 72.2538 9.44624 72.2366 9.17137C72.228 9.03488 72.2039 8.91231 72.1659 8.82427L72.1652 8.82265L72.1652 8.82264C72.1491 8.78423 72.131 8.75934 72.118 8.74609C72.1107 8.7393 72.1075 8.7375 72.1072 8.73731L72.1061 8.73681C72.1055 8.73655 72.1039 8.73597 72.1008 8.73514L72.0946 8.73348L72.0946 8.73345C72.0945 8.73344 72.0942 8.73341 72.0939 8.73337C72.0892 8.73289 72.0691 8.73081 72.0303 8.73569C71.9874 8.74108 71.9339 8.7534 71.8769 8.77398L71.8764 8.77417C71.7547 8.81763 71.6235 8.88497 71.4927 8.96542L71.4926 8.96552C71.227 9.12842 70.9707 9.33133 70.7208 9.54751L71.5254 11.753ZM71.5254 11.753C71.3507 12.0029 71.1302 12.2533 70.906 12.5057M71.5254 11.753L70.906 12.5057M70.906 12.5057C69.9993 13.5082 69.014 14.4668 68.0109 15.4084L70.906 12.5057Z" fill="#FD464B" stroke="#FD464B" stroke-width="0.3"/>
<mask id="path-8-outside-4" maskUnits="userSpaceOnUse" x="34" y="23" width="49" height="27" fill="black">
<rect fill="white" x="34" y="23" width="49" height="27"/>
<path d="M59.7576 24.0479C58.1829 28.6725 56.5833 33.2887 54.9225 37.8835C54.0886 40.1795 53.2491 42.4726 52.3333 44.7401C52.1109 45.3095 51.8593 45.8689 51.6147 46.4297C51.4744 46.7044 51.3396 46.9877 51.1922 47.2553C51.0407 47.5172 50.8934 47.782 50.7572 48.0496C50.6891 48.1834 50.6238 48.3172 50.5682 48.4524C50.5404 48.5193 50.514 48.5862 50.4959 48.6502C50.4862 48.6816 50.4807 48.7114 50.4779 48.7342C50.4765 48.7442 50.4765 48.7541 50.4765 48.7513C50.4765 48.7541 50.4765 48.7285 50.4473 48.7015C50.4167 48.673 50.382 48.673 50.382 48.673C50.3764 48.6744 50.3848 48.6716 50.3917 48.6687C50.4112 48.6616 50.4376 48.6474 50.4654 48.6317C50.5196 48.599 50.5779 48.5563 50.6335 48.5136C50.7461 48.4253 50.8587 48.3271 50.9685 48.2275C51.4077 47.8247 51.8288 47.3905 52.2485 46.9578C53.0699 46.0895 53.8245 45.1387 54.5542 44.175C55.2824 43.2099 55.9815 42.2206 56.6375 41.2043C56.8015 40.951 56.9585 40.6919 57.1184 40.4357C57.2684 40.1738 57.4297 39.9176 57.5714 39.6528L57.7868 39.2571L57.9856 38.8543C58.0551 38.7205 58.1121 38.5838 58.169 38.4472C58.2274 38.3105 58.2872 38.1739 58.3261 38.0358C58.422 37.7668 58.4887 37.4679 58.5346 37.1817C58.579 36.8928 58.5957 36.6053 58.5651 36.3291C58.5304 36.0544 58.4442 35.7953 58.2997 35.5704C58.1524 35.347 57.9508 35.1591 57.7201 35.0053C57.2559 34.6979 56.6945 34.52 56.1288 34.3947C55.559 34.2709 54.9739 34.2011 54.386 34.1584C53.7967 34.1171 53.2047 34.1015 52.6126 34.1029C52.0206 34.1072 51.4229 34.1285 50.8267 34.1456C48.4432 34.2296 46.0611 34.3819 43.697 34.668C42.5157 34.8118 41.3385 34.9911 40.1739 35.2217C39.882 35.2772 39.5943 35.3455 39.3039 35.4067C39.0162 35.4779 38.7271 35.5405 38.4422 35.6203C38.1559 35.6929 37.8738 35.7783 37.5902 35.8622C37.297 35.9519 36.9996 36.0345 36.6938 36.0985C36.3867 36.1612 36.0767 36.2124 35.7237 36.1967L35.5847 36.1825C35.5333 36.1725 35.4861 36.164 35.4319 36.1483C35.3749 36.127 35.3221 36.1128 35.254 36.0686C35.2234 36.0501 35.1914 36.0302 35.1567 35.9932C35.1233 35.9576 35.0914 35.9291 35.065 35.875C35.0399 35.8252 35.0149 35.7726 35.0094 35.7213C35.0024 35.6715 34.9955 35.6074 35.0038 35.569C35.0094 35.5277 35.0191 35.4808 35.0302 35.4438C35.0427 35.4124 35.0552 35.3811 35.0691 35.3498C35.0983 35.2886 35.1275 35.2502 35.1595 35.2018L35.2526 35.0879C35.5055 34.8231 35.7682 34.6495 36.0364 34.4801C36.3047 34.315 36.5757 34.1669 36.8509 34.0303C37.126 33.8922 37.4026 33.7641 37.682 33.6431L37.8918 33.552C37.9627 33.5221 38.0391 33.4951 38.1114 33.468L38.3338 33.3841L38.5548 33.3143C38.8494 33.2161 39.144 33.1435 39.4373 33.0638C39.7319 32.9955 40.0266 32.9186 40.3226 32.8574C41.5039 32.6026 42.6894 32.4019 43.8777 32.2226C45.066 32.0432 46.2557 31.8909 47.4481 31.7599C49.833 31.5009 52.2249 31.3187 54.6181 31.192C57.0127 31.0767 59.4101 31.0312 61.8062 31.0497C64.2022 31.0696 66.601 31.1536 68.99 31.36C70.1853 31.4539 71.3777 31.5906 72.5674 31.7372C73.7557 31.9023 74.9426 32.0745 76.1197 32.3122C77.2969 32.5414 78.4699 32.809 79.6193 33.1734C80.1905 33.3613 80.7631 33.5648 81.2926 33.8737C81.3579 33.9136 81.4218 33.9577 81.4858 33.999C81.5469 34.0474 81.6108 34.0901 81.6692 34.1442C81.7873 34.2452 81.8958 34.3691 81.9611 34.5228C82.0278 34.6765 82.0069 34.873 81.9124 35.0053C81.8221 35.142 81.697 35.2402 81.5594 35.3142C81.5427 35.3228 81.5219 35.3171 81.5122 35.2986C81.5038 35.2815 81.5094 35.2601 81.5261 35.2516L81.5288 35.2502C81.6511 35.1776 81.7679 35.0779 81.8388 34.9569C81.9138 34.8374 81.9222 34.6893 81.8638 34.5641C81.804 34.4388 81.7053 34.3292 81.59 34.241C81.5344 34.194 81.4719 34.1556 81.4135 34.1129C81.3496 34.0758 81.2884 34.036 81.2231 34.0004C80.7033 33.72 80.1321 33.5364 79.5623 33.3698C78.4157 33.0481 77.2427 32.8204 76.0641 32.6325C74.8898 32.4275 73.7043 32.2823 72.5201 32.1471C71.3333 32.029 70.1464 31.9222 68.9553 31.8553C64.1938 31.5664 59.4143 31.6176 54.6528 31.9037C52.2721 32.0389 49.8928 32.2297 47.5232 32.4958C45.1549 32.7578 42.7853 33.0666 40.4616 33.5478C40.1711 33.6047 39.8848 33.6773 39.5957 33.7413C39.3122 33.8168 39.0245 33.8851 38.7493 33.9734L38.5409 34.0374L38.3407 34.11C38.274 34.1356 38.2087 34.157 38.1406 34.184L37.9363 34.2694C37.6639 34.3847 37.3957 34.5057 37.133 34.6353C36.8689 34.7634 36.6104 34.9 36.3658 35.0495C36.1226 35.1961 35.8822 35.3626 35.7154 35.5363L35.664 35.5975C35.6556 35.6131 35.6376 35.6345 35.6348 35.643C35.6334 35.6473 35.632 35.6501 35.6278 35.6544C35.6292 35.653 35.632 35.6459 35.6306 35.6416C35.6264 35.6416 35.6348 35.616 35.6292 35.6032C35.6223 35.5904 35.6237 35.5704 35.6112 35.5548C35.5722 35.4978 35.5695 35.5206 35.6084 35.5292C35.6264 35.5349 35.6528 35.5391 35.6751 35.5448L35.7599 35.5548C36.0059 35.569 36.2922 35.5306 36.5701 35.4751C36.8509 35.4196 37.1302 35.3455 37.4109 35.2616C37.7028 35.1776 37.9947 35.0922 38.2893 35.0196C38.5826 34.9413 38.8786 34.8787 39.1718 34.8089C39.4679 34.7491 39.7625 34.6822 40.0585 34.6281C41.244 34.4032 42.4351 34.2353 43.6289 34.1C46.0166 33.8296 48.4126 33.6929 50.8073 33.6275C51.4063 33.6147 52.0039 33.5976 52.6071 33.5976C53.2088 33.6004 53.8134 33.6204 54.4166 33.6673C55.0197 33.7157 55.6243 33.7912 56.2233 33.9264C56.8195 34.0645 57.4227 34.2538 57.9634 34.6153C58.2316 34.7961 58.4804 35.0295 58.6666 35.3156C58.8487 35.6046 58.9571 35.9405 58.996 36.2722C59.0307 36.6053 59.0071 36.9341 58.9557 37.2486C58.9015 37.5661 58.8348 37.865 58.7236 38.1724C58.6777 38.329 58.6138 38.4714 58.5512 38.6151C58.4901 38.7603 58.4289 38.9041 58.3567 39.0407L58.1482 39.4549L57.9244 39.8592C57.7771 40.1296 57.6131 40.3873 57.4575 40.652C57.2935 40.9111 57.1323 41.1702 56.9655 41.4264C56.2956 42.4484 55.584 43.4391 54.8446 44.4056C54.1011 45.3707 53.3395 46.3187 52.4903 47.204C52.0636 47.6353 51.6384 48.0666 51.1825 48.4766C51.0672 48.5791 50.9518 48.6787 50.8253 48.7755C50.7628 48.8239 50.6975 48.8709 50.6224 48.915C50.5849 48.9363 50.546 48.9591 50.4946 48.9776C50.4668 48.9862 50.439 48.9961 50.3959 48.999C50.3597 49.0032 50.2833 48.9961 50.2263 48.9406C50.1707 48.8879 50.1568 48.8225 50.1541 48.7883C50.1499 48.7485 50.1527 48.7186 50.1554 48.6915C50.1624 48.6388 50.1735 48.5933 50.186 48.552C50.211 48.468 50.2416 48.394 50.2722 48.32C50.3347 48.1734 50.4042 48.0339 50.4765 47.8972C50.6196 47.624 50.7725 47.3578 50.9268 47.0944C51.0741 46.8297 51.2047 46.5635 51.3437 46.2973C51.5911 45.7436 51.8454 45.1928 52.0734 44.6277C53.0073 42.3772 53.869 40.0926 54.7237 37.8066C56.4276 33.2318 58.0704 28.6313 59.6881 24.0237C59.695 24.0052 59.7145 23.9952 59.7326 24.0023C59.7548 24.0094 59.7645 24.0294 59.7576 24.0479Z"/>
</mask>
<path d="M59.7576 24.0479C58.1829 28.6725 56.5833 33.2887 54.9225 37.8835C54.0886 40.1795 53.2491 42.4726 52.3333 44.7401C52.1109 45.3095 51.8593 45.8689 51.6147 46.4297C51.4744 46.7044 51.3396 46.9877 51.1922 47.2553C51.0407 47.5172 50.8934 47.782 50.7572 48.0496C50.6891 48.1834 50.6238 48.3172 50.5682 48.4524C50.5404 48.5193 50.514 48.5862 50.4959 48.6502C50.4862 48.6816 50.4807 48.7114 50.4779 48.7342C50.4765 48.7442 50.4765 48.7541 50.4765 48.7513C50.4765 48.7541 50.4765 48.7285 50.4473 48.7015C50.4167 48.673 50.382 48.673 50.382 48.673C50.3764 48.6744 50.3848 48.6716 50.3917 48.6687C50.4112 48.6616 50.4376 48.6474 50.4654 48.6317C50.5196 48.599 50.5779 48.5563 50.6335 48.5136C50.7461 48.4253 50.8587 48.3271 50.9685 48.2275C51.4077 47.8247 51.8288 47.3905 52.2485 46.9578C53.0699 46.0895 53.8245 45.1387 54.5542 44.175C55.2824 43.2099 55.9815 42.2206 56.6375 41.2043C56.8015 40.951 56.9585 40.6919 57.1184 40.4357C57.2684 40.1738 57.4297 39.9176 57.5714 39.6528L57.7868 39.2571L57.9856 38.8543C58.0551 38.7205 58.1121 38.5838 58.169 38.4472C58.2274 38.3105 58.2872 38.1739 58.3261 38.0358C58.422 37.7668 58.4887 37.4679 58.5346 37.1817C58.579 36.8928 58.5957 36.6053 58.5651 36.3291C58.5304 36.0544 58.4442 35.7953 58.2997 35.5704C58.1524 35.347 57.9508 35.1591 57.7201 35.0053C57.2559 34.6979 56.6945 34.52 56.1288 34.3947C55.559 34.2709 54.9739 34.2011 54.386 34.1584C53.7967 34.1171 53.2047 34.1015 52.6126 34.1029C52.0206 34.1072 51.4229 34.1285 50.8267 34.1456C48.4432 34.2296 46.0611 34.3819 43.697 34.668C42.5157 34.8118 41.3385 34.9911 40.1739 35.2217C39.882 35.2772 39.5943 35.3455 39.3039 35.4067C39.0162 35.4779 38.7271 35.5405 38.4422 35.6203C38.1559 35.6929 37.8738 35.7783 37.5902 35.8622C37.297 35.9519 36.9996 36.0345 36.6938 36.0985C36.3867 36.1612 36.0767 36.2124 35.7237 36.1967L35.5847 36.1825C35.5333 36.1725 35.4861 36.164 35.4319 36.1483C35.3749 36.127 35.3221 36.1128 35.254 36.0686C35.2234 36.0501 35.1914 36.0302 35.1567 35.9932C35.1233 35.9576 35.0914 35.9291 35.065 35.875C35.0399 35.8252 35.0149 35.7726 35.0094 35.7213C35.0024 35.6715 34.9955 35.6074 35.0038 35.569C35.0094 35.5277 35.0191 35.4808 35.0302 35.4438C35.0427 35.4124 35.0552 35.3811 35.0691 35.3498C35.0983 35.2886 35.1275 35.2502 35.1595 35.2018L35.2526 35.0879C35.5055 34.8231 35.7682 34.6495 36.0364 34.4801C36.3047 34.315 36.5757 34.1669 36.8509 34.0303C37.126 33.8922 37.4026 33.7641 37.682 33.6431L37.8918 33.552C37.9627 33.5221 38.0391 33.4951 38.1114 33.468L38.3338 33.3841L38.5548 33.3143C38.8494 33.2161 39.144 33.1435 39.4373 33.0638C39.7319 32.9955 40.0266 32.9186 40.3226 32.8574C41.5039 32.6026 42.6894 32.4019 43.8777 32.2226C45.066 32.0432 46.2557 31.8909 47.4481 31.7599C49.833 31.5009 52.2249 31.3187 54.6181 31.192C57.0127 31.0767 59.4101 31.0312 61.8062 31.0497C64.2022 31.0696 66.601 31.1536 68.99 31.36C70.1853 31.4539 71.3777 31.5906 72.5674 31.7372C73.7557 31.9023 74.9426 32.0745 76.1197 32.3122C77.2969 32.5414 78.4699 32.809 79.6193 33.1734C80.1905 33.3613 80.7631 33.5648 81.2926 33.8737C81.3579 33.9136 81.4218 33.9577 81.4858 33.999C81.5469 34.0474 81.6108 34.0901 81.6692 34.1442C81.7873 34.2452 81.8958 34.3691 81.9611 34.5228C82.0278 34.6765 82.0069 34.873 81.9124 35.0053C81.8221 35.142 81.697 35.2402 81.5594 35.3142C81.5427 35.3228 81.5219 35.3171 81.5122 35.2986C81.5038 35.2815 81.5094 35.2601 81.5261 35.2516L81.5288 35.2502C81.6511 35.1776 81.7679 35.0779 81.8388 34.9569C81.9138 34.8374 81.9222 34.6893 81.8638 34.5641C81.804 34.4388 81.7053 34.3292 81.59 34.241C81.5344 34.194 81.4719 34.1556 81.4135 34.1129C81.3496 34.0758 81.2884 34.036 81.2231 34.0004C80.7033 33.72 80.1321 33.5364 79.5623 33.3698C78.4157 33.0481 77.2427 32.8204 76.0641 32.6325C74.8898 32.4275 73.7043 32.2823 72.5201 32.1471C71.3333 32.029 70.1464 31.9222 68.9553 31.8553C64.1938 31.5664 59.4143 31.6176 54.6528 31.9037C52.2721 32.0389 49.8928 32.2297 47.5232 32.4958C45.1549 32.7578 42.7853 33.0666 40.4616 33.5478C40.1711 33.6047 39.8848 33.6773 39.5957 33.7413C39.3122 33.8168 39.0245 33.8851 38.7493 33.9734L38.5409 34.0374L38.3407 34.11C38.274 34.1356 38.2087 34.157 38.1406 34.184L37.9363 34.2694C37.6639 34.3847 37.3957 34.5057 37.133 34.6353C36.8689 34.7634 36.6104 34.9 36.3658 35.0495C36.1226 35.1961 35.8822 35.3626 35.7154 35.5363L35.664 35.5975C35.6556 35.6131 35.6376 35.6345 35.6348 35.643C35.6334 35.6473 35.632 35.6501 35.6278 35.6544C35.6292 35.653 35.632 35.6459 35.6306 35.6416C35.6264 35.6416 35.6348 35.616 35.6292 35.6032C35.6223 35.5904 35.6237 35.5704 35.6112 35.5548C35.5722 35.4978 35.5695 35.5206 35.6084 35.5292C35.6264 35.5349 35.6528 35.5391 35.6751 35.5448L35.7599 35.5548C36.0059 35.569 36.2922 35.5306 36.5701 35.4751C36.8509 35.4196 37.1302 35.3455 37.4109 35.2616C37.7028 35.1776 37.9947 35.0922 38.2893 35.0196C38.5826 34.9413 38.8786 34.8787 39.1718 34.8089C39.4679 34.7491 39.7625 34.6822 40.0585 34.6281C41.244 34.4032 42.4351 34.2353 43.6289 34.1C46.0166 33.8296 48.4126 33.6929 50.8073 33.6275C51.4063 33.6147 52.0039 33.5976 52.6071 33.5976C53.2088 33.6004 53.8134 33.6204 54.4166 33.6673C55.0197 33.7157 55.6243 33.7912 56.2233 33.9264C56.8195 34.0645 57.4227 34.2538 57.9634 34.6153C58.2316 34.7961 58.4804 35.0295 58.6666 35.3156C58.8487 35.6046 58.9571 35.9405 58.996 36.2722C59.0307 36.6053 59.0071 36.9341 58.9557 37.2486C58.9015 37.5661 58.8348 37.865 58.7236 38.1724C58.6777 38.329 58.6138 38.4714 58.5512 38.6151C58.4901 38.7603 58.4289 38.9041 58.3567 39.0407L58.1482 39.4549L57.9244 39.8592C57.7771 40.1296 57.6131 40.3873 57.4575 40.652C57.2935 40.9111 57.1323 41.1702 56.9655 41.4264C56.2956 42.4484 55.584 43.4391 54.8446 44.4056C54.1011 45.3707 53.3395 46.3187 52.4903 47.204C52.0636 47.6353 51.6384 48.0666 51.1825 48.4766C51.0672 48.5791 50.9518 48.6787 50.8253 48.7755C50.7628 48.8239 50.6975 48.8709 50.6224 48.915C50.5849 48.9363 50.546 48.9591 50.4946 48.9776C50.4668 48.9862 50.439 48.9961 50.3959 48.999C50.3597 49.0032 50.2833 48.9961 50.2263 48.9406C50.1707 48.8879 50.1568 48.8225 50.1541 48.7883C50.1499 48.7485 50.1527 48.7186 50.1554 48.6915C50.1624 48.6388 50.1735 48.5933 50.186 48.552C50.211 48.468 50.2416 48.394 50.2722 48.32C50.3347 48.1734 50.4042 48.0339 50.4765 47.8972C50.6196 47.624 50.7725 47.3578 50.9268 47.0944C51.0741 46.8297 51.2047 46.5635 51.3437 46.2973C51.5911 45.7436 51.8454 45.1928 52.0734 44.6277C53.0073 42.3772 53.869 40.0926 54.7237 37.8066C56.4276 33.2318 58.0704 28.6313 59.6881 24.0237C59.695 24.0052 59.7145 23.9952 59.7326 24.0023C59.7548 24.0094 59.7645 24.0294 59.7576 24.0479Z" fill="#FD464B"/>
<path d="M59.7576 24.0479C58.1829 28.6725 56.5833 33.2887 54.9225 37.8835C54.0886 40.1795 53.2491 42.4726 52.3333 44.7401C52.1109 45.3095 51.8593 45.8689 51.6147 46.4297C51.4744 46.7044 51.3396 46.9877 51.1922 47.2553C51.0407 47.5172 50.8934 47.782 50.7572 48.0496C50.6891 48.1834 50.6238 48.3172 50.5682 48.4524C50.5404 48.5193 50.514 48.5862 50.4959 48.6502C50.4862 48.6816 50.4807 48.7114 50.4779 48.7342C50.4765 48.7442 50.4765 48.7541 50.4765 48.7513C50.4765 48.7541 50.4765 48.7285 50.4473 48.7015C50.4167 48.673 50.382 48.673 50.382 48.673C50.3764 48.6744 50.3848 48.6716 50.3917 48.6687C50.4112 48.6616 50.4376 48.6474 50.4654 48.6317C50.5196 48.599 50.5779 48.5563 50.6335 48.5136C50.7461 48.4253 50.8587 48.3271 50.9685 48.2275C51.4077 47.8247 51.8288 47.3905 52.2485 46.9578C53.0699 46.0895 53.8245 45.1387 54.5542 44.175C55.2824 43.2099 55.9815 42.2206 56.6375 41.2043C56.8015 40.951 56.9585 40.6919 57.1184 40.4357C57.2684 40.1738 57.4297 39.9176 57.5714 39.6528L57.7868 39.2571L57.9856 38.8543C58.0551 38.7205 58.1121 38.5838 58.169 38.4472C58.2274 38.3105 58.2872 38.1739 58.3261 38.0358C58.422 37.7668 58.4887 37.4679 58.5346 37.1817C58.579 36.8928 58.5957 36.6053 58.5651 36.3291C58.5304 36.0544 58.4442 35.7953 58.2997 35.5704C58.1524 35.347 57.9508 35.1591 57.7201 35.0053C57.2559 34.6979 56.6945 34.52 56.1288 34.3947C55.559 34.2709 54.9739 34.2011 54.386 34.1584C53.7967 34.1171 53.2047 34.1015 52.6126 34.1029C52.0206 34.1072 51.4229 34.1285 50.8267 34.1456C48.4432 34.2296 46.0611 34.3819 43.697 34.668C42.5157 34.8118 41.3385 34.9911 40.1739 35.2217C39.882 35.2772 39.5943 35.3455 39.3039 35.4067C39.0162 35.4779 38.7271 35.5405 38.4422 35.6203C38.1559 35.6929 37.8738 35.7783 37.5902 35.8622C37.297 35.9519 36.9996 36.0345 36.6938 36.0985C36.3867 36.1612 36.0767 36.2124 35.7237 36.1967L35.5847 36.1825C35.5333 36.1725 35.4861 36.164 35.4319 36.1483C35.3749 36.127 35.3221 36.1128 35.254 36.0686C35.2234 36.0501 35.1914 36.0302 35.1567 35.9932C35.1233 35.9576 35.0914 35.9291 35.065 35.875C35.0399 35.8252 35.0149 35.7726 35.0094 35.7213C35.0024 35.6715 34.9955 35.6074 35.0038 35.569C35.0094 35.5277 35.0191 35.4808 35.0302 35.4438C35.0427 35.4124 35.0552 35.3811 35.0691 35.3498C35.0983 35.2886 35.1275 35.2502 35.1595 35.2018L35.2526 35.0879C35.5055 34.8231 35.7682 34.6495 36.0364 34.4801C36.3047 34.315 36.5757 34.1669 36.8509 34.0303C37.126 33.8922 37.4026 33.7641 37.682 33.6431L37.8918 33.552C37.9627 33.5221 38.0391 33.4951 38.1114 33.468L38.3338 33.3841L38.5548 33.3143C38.8494 33.2161 39.144 33.1435 39.4373 33.0638C39.7319 32.9955 40.0266 32.9186 40.3226 32.8574C41.5039 32.6026 42.6894 32.4019 43.8777 32.2226C45.066 32.0432 46.2557 31.8909 47.4481 31.7599C49.833 31.5009 52.2249 31.3187 54.6181 31.192C57.0127 31.0767 59.4101 31.0312 61.8062 31.0497C64.2022 31.0696 66.601 31.1536 68.99 31.36C70.1853 31.4539 71.3777 31.5906 72.5674 31.7372C73.7557 31.9023 74.9426 32.0745 76.1197 32.3122C77.2969 32.5414 78.4699 32.809 79.6193 33.1734C80.1905 33.3613 80.7631 33.5648 81.2926 33.8737C81.3579 33.9136 81.4218 33.9577 81.4858 33.999C81.5469 34.0474 81.6108 34.0901 81.6692 34.1442C81.7873 34.2452 81.8958 34.3691 81.9611 34.5228C82.0278 34.6765 82.0069 34.873 81.9124 35.0053C81.8221 35.142 81.697 35.2402 81.5594 35.3142C81.5427 35.3228 81.5219 35.3171 81.5122 35.2986C81.5038 35.2815 81.5094 35.2601 81.5261 35.2516L81.5288 35.2502C81.6511 35.1776 81.7679 35.0779 81.8388 34.9569C81.9138 34.8374 81.9222 34.6893 81.8638 34.5641C81.804 34.4388 81.7053 34.3292 81.59 34.241C81.5344 34.194 81.4719 34.1556 81.4135 34.1129C81.3496 34.0758 81.2884 34.036 81.2231 34.0004C80.7033 33.72 80.1321 33.5364 79.5623 33.3698C78.4157 33.0481 77.2427 32.8204 76.0641 32.6325C74.8898 32.4275 73.7043 32.2823 72.5201 32.1471C71.3333 32.029 70.1464 31.9222 68.9553 31.8553C64.1938 31.5664 59.4143 31.6176 54.6528 31.9037C52.2721 32.0389 49.8928 32.2297 47.5232 32.4958C45.1549 32.7578 42.7853 33.0666 40.4616 33.5478C40.1711 33.6047 39.8848 33.6773 39.5957 33.7413C39.3122 33.8168 39.0245 33.8851 38.7493 33.9734L38.5409 34.0374L38.3407 34.11C38.274 34.1356 38.2087 34.157 38.1406 34.184L37.9363 34.2694C37.6639 34.3847 37.3957 34.5057 37.133 34.6353C36.8689 34.7634 36.6104 34.9 36.3658 35.0495C36.1226 35.1961 35.8822 35.3626 35.7154 35.5363L35.664 35.5975C35.6556 35.6131 35.6376 35.6345 35.6348 35.643C35.6334 35.6473 35.632 35.6501 35.6278 35.6544C35.6292 35.653 35.632 35.6459 35.6306 35.6416C35.6264 35.6416 35.6348 35.616 35.6292 35.6032C35.6223 35.5904 35.6237 35.5704 35.6112 35.5548C35.5722 35.4978 35.5695 35.5206 35.6084 35.5292C35.6264 35.5349 35.6528 35.5391 35.6751 35.5448L35.7599 35.5548C36.0059 35.569 36.2922 35.5306 36.5701 35.4751C36.8509 35.4196 37.1302 35.3455 37.4109 35.2616C37.7028 35.1776 37.9947 35.0922 38.2893 35.0196C38.5826 34.9413 38.8786 34.8787 39.1718 34.8089C39.4679 34.7491 39.7625 34.6822 40.0585 34.6281C41.244 34.4032 42.4351 34.2353 43.6289 34.1C46.0166 33.8296 48.4126 33.6929 50.8073 33.6275C51.4063 33.6147 52.0039 33.5976 52.6071 33.5976C53.2088 33.6004 53.8134 33.6204 54.4166 33.6673C55.0197 33.7157 55.6243 33.7912 56.2233 33.9264C56.8195 34.0645 57.4227 34.2538 57.9634 34.6153C58.2316 34.7961 58.4804 35.0295 58.6666 35.3156C58.8487 35.6046 58.9571 35.9405 58.996 36.2722C59.0307 36.6053 59.0071 36.9341 58.9557 37.2486C58.9015 37.5661 58.8348 37.865 58.7236 38.1724C58.6777 38.329 58.6138 38.4714 58.5512 38.6151C58.4901 38.7603 58.4289 38.9041 58.3567 39.0407L58.1482 39.4549L57.9244 39.8592C57.7771 40.1296 57.6131 40.3873 57.4575 40.652C57.2935 40.9111 57.1323 41.1702 56.9655 41.4264C56.2956 42.4484 55.584 43.4391 54.8446 44.4056C54.1011 45.3707 53.3395 46.3187 52.4903 47.204C52.0636 47.6353 51.6384 48.0666 51.1825 48.4766C51.0672 48.5791 50.9518 48.6787 50.8253 48.7755C50.7628 48.8239 50.6975 48.8709 50.6224 48.915C50.5849 48.9363 50.546 48.9591 50.4946 48.9776C50.4668 48.9862 50.439 48.9961 50.3959 48.999C50.3597 49.0032 50.2833 48.9961 50.2263 48.9406C50.1707 48.8879 50.1568 48.8225 50.1541 48.7883C50.1499 48.7485 50.1527 48.7186 50.1554 48.6915C50.1624 48.6388 50.1735 48.5933 50.186 48.552C50.211 48.468 50.2416 48.394 50.2722 48.32C50.3347 48.1734 50.4042 48.0339 50.4765 47.8972C50.6196 47.624 50.7725 47.3578 50.9268 47.0944C51.0741 46.8297 51.2047 46.5635 51.3437 46.2973C51.5911 45.7436 51.8454 45.1928 52.0734 44.6277C53.0073 42.3772 53.869 40.0926 54.7237 37.8066C56.4276 33.2318 58.0704 28.6313 59.6881 24.0237C59.695 24.0052 59.7145 23.9952 59.7326 24.0023C59.7548 24.0094 59.7645 24.0294 59.7576 24.0479Z" stroke="#FD464B" stroke-width="0.6" mask="url(#path-8-outside-4)"/>
</svg>
